<svg width="160" height="194" viewBox="0 0 160 194" xmlns="http://www.w3.org/2000/svg" xmlns:xlink="http://www.w3.org/1999/xlink"><defs><path id="a" d="M102.232.744H.05V183.25h102.18V.744z"/><path id="c" d="M0 194h159.232V.744H0z"/><path id="e" d="M0 61h89.465V.858H0V61z"/></defs><g fill="none" fill-rule="evenodd"><g transform="translate(0 -.744)"><g transform="translate(57)"><mask id="b" fill="#fff"><use xlink:href="#a"/></mask><path d="M96.015 183.25H6.268a6.216 6.216 0 0 1-6.217-6.218V6.96A6.217 6.217 0 0 1 6.268.744h89.747a6.217 6.217 0 0 1 6.217 6.216v170.072a6.216 6.216 0 0 1-6.217 6.218" fill="#CBD8DE" mask="url(#b)"/></g><mask id="d" fill="#fff"><use xlink:href="#c"/></mask><path fill="#EDF4F3" mask="url(#d)" d="M65.051 158.956h86.208V25.037H65.051z"/><path stroke="#CBD8DE" stroke-width=".75" mask="url(#d)" d="M65.051 158.956h86.208V25.037H65.051z"/><path d="M113.552 11.156H102.73a.718.718 0 0 0-.716.717c0 .394.323.716.717.716h10.82a.719.719 0 0 0 .718-.716.719.719 0 0 0-.718-.717" fill="#708DA0" mask="url(#d)"/><path d="M113.339 170.51a5.198 5.198 0 1 1-10.396 0 5.198 5.198 0 0 1 10.396 0" fill="#CBD8DE" mask="url(#d)"/><path d="M113.339 170.51a5.198 5.198 0 1 1-10.396 0 5.198 5.198 0 0 1 10.396 0z" stroke="#99B1BF" mask="url(#d)"/><path d="M136.462 131.348H79.82a1.944 1.944 0 0 1-1.945-1.944v-20.247c0-1.074.87-1.944 1.945-1.944h56.64c1.075 0 1.945.87 1.945 1.944v20.247c0 1.074-.87 1.944-1.944 1.944" fill="#82CDE6" mask="url(#d)"/><path fill="#FFF" mask="url(#d)" d="M77.877 68.002h18.751V55.754H77.877zM98.766 68.002h18.751V55.754H98.766zM119.655 68.002h18.751V55.754h-18.751zM77.877 82.388h18.751V70.14H77.877zM98.766 82.388h18.751V70.14H98.766zM119.655 82.388h18.751V70.14h-18.751zM77.877 96.774h18.751V84.526H77.877zM98.766 96.774h18.751V84.526H98.766zM119.655 96.774h18.751V84.526h-18.751z"/></g><text font-family="HaasGrotDisp-65Medium, Haas Grot Disp" font-size="12.998" font-weight="500" fill="#1C5191" transform="translate(0 -1)"><tspan x="97.925" y="121.178">P</tspan></text><text font-family="HaasGrotDisp-65Medium, Haas Grot Disp" font-size="12.998" font-weight="500" fill="#1C5191" transform="translate(0 -1)"><tspan x="105.945" y="121.178">a</tspan></text><text font-family="HaasGrotDisp-65Medium, Haas Grot Disp" font-size="12.998" font-weight="500" fill="#1C5191" transform="translate(0 -1)"><tspan x="113.185" y="121.178">y</tspan></text><g transform="translate(0 132.256)"><mask id="f" fill="#fff"><use xlink:href="#e"/></mask><path d="M85.578 57.958a3.314 3.314 0 0 1-3.575 3.03l-78.961-6.51a3.314 3.314 0 0 1-3.03-3.576L3.887 3.9A3.314 3.314 0 0 1 7.463.87l78.96 6.51a3.314 3.314 0 0 1 3.03 3.576l-3.875 47.002z" fill="#4A6271" mask="url(#f)"/></g><path d="M20.61 159.931a1.777 1.777 0 0 1-1.918 1.625l-7.798-.643a1.777 1.777 0 0 1-1.625-1.917l.43-5.22a1.778 1.778 0 0 1 1.918-1.626l7.797.643c.978.081 1.706.94 1.625 1.918l-.43 5.22z" fill="#EDF4F3"/><path fill="#3F525E" d="M80.665 174.269l-72.164-5.951.404-4.901 72.164 5.951zM35.776 184.186l-28.391-2.341.202-2.451 28.391 2.34zM43.658 180.307l-35.902-2.96.203-2.451 35.9 2.96z"/></g></svg>