<svg width="110" height="166" viewBox="0 0 110 166" xmlns="http://www.w3.org/2000/svg" xmlns:xlink="http://www.w3.org/1999/xlink"><title>65A4E153-D3D8-49BF-B4E5-CC916D3D9D69</title><defs><path id="a" d="M0 200h200V0H0z"/></defs><g transform="translate(-45 -17)" fill="none" fill-rule="evenodd"><path d="M127.536 108.87H72.463V59.146c0-15.208 12.354-27.38 27.562-27.38h-.013c15.208 0 27.524 12.172 27.524 27.38v49.722zM99.961 17.31h.083c-22.502 0-40.66 18.38-40.66 40.882v73.395h81.232V58.192c0-22.502-18.153-40.882-40.655-40.882z" fill="#99B1BF"/><mask id="b" fill="#fff"><use xlink:href="#a"/></mask><path fill="#708DA0" mask="url(#b)" d="M59.384 83.831h13.08v-7.783h-13.08zM127.536 83.831h13.08v-7.783h-13.08zM103.347 31.767h.014z"/><path d="M148.031 182.69H51.97a6.09 6.09 0 0 1-6.09-6.09V86.779a6.09 6.09 0 0 1 6.09-6.089h96.062a6.09 6.09 0 0 1 6.09 6.09V176.6a6.09 6.09 0 0 1-6.09 6.089" fill="#EDB31E" mask="url(#b)"/><path d="M148.075 80.69h-96.15a6.046 6.046 0 0 0-6.045 6.045v86.621h108.24v-86.62a6.046 6.046 0 0 0-6.046-6.047" fill="#82665E" mask="url(#b)"/><path d="M66.508 80.69h-14.63a5.997 5.997 0 0 0-5.998 5.997v90.005a5.997 5.997 0 0 0 5.997 5.997h14.63v-102z" fill="#252E33" mask="url(#b)"/><path d="M109.367 139.5c.03.676.145 1.311.338 1.906.192.596.498 1.104.917 1.522.418.418 1.014.627 1.786.627.74 0 1.328-.209 1.763-.627a3.86 3.86 0 0 0 .966-1.522 7.275 7.275 0 0 0 .385-1.883c.048-.659.073-1.247.073-1.76 0-.485-.025-1.056-.073-1.716a7.98 7.98 0 0 0-.362-1.883 4.115 4.115 0 0 0-.893-1.545c-.403-.434-.958-.65-1.666-.65-.772 0-1.376.192-1.81.578a3.68 3.68 0 0 0-.99 1.448 6.436 6.436 0 0 0-.411 1.883 26.78 26.78 0 0 0-.072 1.835c0 .515.016 1.11.049 1.786zm-4.49-5.505c.32-1.126.82-2.107 1.496-2.944a7.11 7.11 0 0 1 2.559-1.98c1.03-.483 2.252-.724 3.669-.724 1.513 0 2.768.25 3.766.748.997.5 1.81 1.175 2.438 2.028.628.853 1.07 1.858 1.328 3.018.257 1.158.386 2.397.386 3.716 0 1.321-.161 2.543-.482 3.67-.322 1.127-.814 2.11-1.473 2.946-.66.837-1.505 1.488-2.535 1.955-1.03.466-2.253.7-3.67.7-1.48 0-2.727-.24-3.741-.725-1.014-.482-1.834-1.15-2.462-2.004-.628-.85-1.08-1.858-1.351-3.017a16.055 16.055 0 0 1-.412-3.717c0-1.319.162-2.543.484-3.67zm7.338-22.353l-19.891 35.872h-4.201l19.988-35.872h4.104zm-27.761 11.78c.032.644.144 1.248.338 1.81.193.564.499 1.038.918 1.425.417.386 1.013.58 1.786.58.74 0 1.327-.194 1.762-.58a3.52 3.52 0 0 0 .965-1.425 6.566 6.566 0 0 0 .387-1.786c.048-.628.072-1.199.072-1.714 0-.483-.024-1.07-.072-1.762a9.209 9.209 0 0 0-.362-2.003 4.26 4.26 0 0 0-.894-1.642c-.402-.45-.958-.676-1.665-.676-.773 0-1.376.21-1.81.627a4.064 4.064 0 0 0-.991 1.545 7.117 7.117 0 0 0-.41 1.98 28.22 28.22 0 0 0-.072 1.883c0 .515.016 1.094.048 1.738zm-4.49-5.552c.32-1.159.82-2.173 1.497-3.042a7.122 7.122 0 0 1 2.558-2.052c1.03-.499 2.253-.748 3.67-.748 1.512 0 2.768.258 3.766.773a6.706 6.706 0 0 1 2.437 2.1c.628.885 1.07 1.923 1.329 3.114.256 1.191.385 2.446.385 3.765 0 1.321-.161 2.535-.482 3.646-.322 1.11-.814 2.068-1.473 2.873-.66.804-1.505 1.431-2.534 1.883-1.031.451-2.254.675-3.67.675-1.48 0-2.727-.233-3.741-.7-1.014-.466-1.835-1.11-2.463-1.93-.627-.822-1.078-1.803-1.352-2.946a15.863 15.863 0 0 1-.41-3.693c0-1.32.16-2.56.483-3.718z" fill="#FFF" mask="url(#b)"/></g></svg>