<svg width="200" height="127" viewBox="0 0 200 127" xmlns="http://www.w3.org/2000/svg" xmlns:xlink="http://www.w3.org/1999/xlink"><title>4D541E7C-2751-46B5-9E42-B74171DECAE4</title><defs><path id="a" d="M0 200h200V0H0z"/></defs><g transform="translate(0 -33)" fill="none" fill-rule="evenodd"><path d="M42.293 48.316L24.836 53.33c-.265.076-.245.458.026.506l18.06 3.22-.629-8.74z" fill="#252E33"/><mask id="b" fill="#fff"><use xlink:href="#a"/></mask><path fill="#CBD8DE" mask="url(#b)" d="M0 159.606h200V68.012H0z"/><path stroke="#99B1BF" stroke-width="1.018" mask="url(#b)" d="M4.576 154.532h190.269V73.086H4.576z"/><path d="M115.942 141.345h71.884M12.174 108.217H160.58M12.174 121.635h175.652" stroke="#99B1BF" mask="url(#b)"/><path fill="#99B1BF" mask="url(#b)" d="M164.348 108.217h23.768v-7.536h-23.768z"/><path d="M19.17 119.487l.017.002-.018-.002zm1.5-.44h-.005.004zm.002-.001v.001-.001zm-3.12-.004l-.013.015.012-.015zm14.92-.596a.155.155 0 0 1 .04.017l-.04-.017zm-.032-.007l.01.001-.01-.001zm-14.737-5.407c-.228.835-.45 1.67-.67 2.506-.077.284-.152.567-.227.851-.067.255-.123.514-.184.771l-.177.74c-.024.099-.05.197-.07.296a166.8 166.8 0 0 1-.137.687l-.042.21c-.024.119-.052.238-.064.359a.809.809 0 0 0 .005.214c.01.054.028.102.045.154a.287.287 0 0 0 .126.164c.083.048.193.05.276 0 .087-.054.176-.101.261-.157.094-.062.176-.141.255-.223.16-.167.295-.359.435-.542.227-.292.446-.59.668-.885.14-.175.278-.351.417-.527.071-.09.148-.175.224-.262a5.47 5.47 0 0 1-.014.462 18.85 18.85 0 0 1-.027.415c-.017.226-.034.452-.049.678a20.22 20.22 0 0 1-.03.425 1.249 1.249 0 0 0 0 .173c.005.083.01.175.053.248a.408.408 0 0 0 .133.144.583.583 0 0 0 .394.082.77.77 0 0 0 .218-.074c.053-.025.101-.06.15-.093.06-.041.121-.083.18-.128.222-.17.412-.378.63-.554.052-.039.104-.084.161-.114.021-.007.042-.026.064-.026h.01c.023 0 .046.022.068.03.063.029.122.067.182.101.076.043.161.075.241.108a1.572 1.572 0 0 0 .564.089c.087-.003.174-.018.26-.031.075-.013.15-.035.222-.062.172-.062.328-.159.474-.266.287-.208.551-.449.795-.704a17.29 17.29 0 0 0 .75-.859c.211-.259.411-.527.607-.797l-.076.283c-.078.287-.147.576-.218.864-.035.141-.059.284-.087.426a3.133 3.133 0 0 0-.063.482c-.002.048.008.099.014.146a.379.379 0 0 0 .04.129.503.503 0 0 0 .241.221c.178.087.38.082.57.059.11-.013.215-.031.321-.057.12-.03.237-.073.353-.114.291-.101.572-.231.853-.357l.397-.177c.217-.09.44-.181.671-.223.116-.01.232-.007.348.004.072.012.143.026.215.041.101.02.203.037.304.055.207.037.415.064.625.081.208.016.414.016.622.016.266 0 .532-.007.798-.016l.826-.029c.138-.004.275-.01.412-.015.136-.005.275-.017.412-.009l.02.015c.06.045.158.049.227.03a.3.3 0 0 0 .175-.135.299.299 0 0 0-.105-.402.34.34 0 0 0-.108-.053.685.685 0 0 0-.15-.028c-.042-.004-.087.001-.129.005l-.185.016c-.123.01-.246.02-.369.027-.26.015-.52.024-.782.033l-.78.022c-.148.003-.296-.001-.443-.002-.24 0-.479-.016-.717-.044-.153-.022-.305-.05-.457-.077-.088-.015-.176-.034-.263-.048a2.373 2.373 0 0 0-.279-.027 1.66 1.66 0 0 0-.515.065c-.177.05-.349.119-.52.189-.308.128-.612.268-.919.399-.14.059-.283.11-.427.16a2.771 2.771 0 0 1-.472.121c-.08.009-.159.014-.24.01a.772.772 0 0 1-.06-.015l-.006-.003a1.34 1.34 0 0 1 .012-.219c.02-.124.044-.246.07-.369.015-.075.03-.15.05-.225.052-.204.101-.409.156-.613l.196-.715c.028-.102.056-.205.086-.307.037-.128.076-.255.11-.384.016-.064.03-.129.042-.194.016-.086.017-.174.021-.262.006-.112-.08-.215-.185-.244a.258.258 0 0 0-.135 0 .274.274 0 0 0-.15.116c-.14.192-.272.388-.413.579l-.422.572c-.14.181-.28.361-.426.538-.154.189-.317.371-.479.554a10.09 10.09 0 0 1-.494.52c-.155.151-.32.292-.49.426a2.384 2.384 0 0 1-.396.247c-.08.029-.16.05-.245.065-.09.009-.18.011-.27.003a1.842 1.842 0 0 1-.145-.03.707.707 0 0 1-.127-.044c-.069-.03-.133-.066-.2-.1a1.274 1.274 0 0 0-.253-.098l-.12-.017a.881.881 0 0 0-.154.015.938.938 0 0 0-.264.104c-.073.042-.138.101-.204.152-.076.059-.146.124-.217.189l-.174.156a2.088 2.088 0 0 1-.484.361 1.37 1.37 0 0 1 .002-.111l.014-.166c.01-.103.017-.207.025-.311l.034-.414c.018-.209.035-.417.048-.627.006-.103.011-.207.014-.311.003-.113-.003-.225-.002-.338a1 1 0 0 0-.04-.322.375.375 0 0 0-.164-.216l-.06-.033a.266.266 0 0 0-.32.041c-.17.174-.327.361-.487.544-.14.161-.272.328-.408.493-.264.322-.513.656-.767.985l.042-.055c-.07.092-.144.184-.215.276l.043-.055c-.09.117-.182.234-.283.341l.052-.244.124-.589c.014-.066.031-.131.048-.197l.136-.542.265-1.052c.05-.198.108-.394.161-.591.256-.932.511-1.863.77-2.793a.302.302 0 0 0-.287-.38.304.304 0 0 0-.292.22zM47.528 117.702l.005-.001-.005.001zm.076-.01l-.038.005.038-.005zm-6.607-.207l.021.009-.014-.006-.007-.003zm-.06-.014l.014.002-.014-.002zm6.312-.315a.122.122 0 0 1 .017.007l-.01-.005-.007-.002zm-.13-.516l.004.029c0-.01-.003-.019-.004-.029zm-.614-.454l.005.004-.005-.004zm-7.924-1.128a.316.316 0 0 0-.139.18c-.15.444-.3.887-.456 1.329a9.38 9.38 0 0 0-.214.679c-.063.237-.094.483-.14.724a.305.305 0 0 0 0 .153.29.29 0 0 0 .277.21l.076-.01a.287.287 0 0 0 .127-.074l.025-.02.173-.133c.08-.063.145-.136.208-.214.11-.136.201-.287.308-.426l.177-.229-.005.073-.018.281-.017.213c-.007.094-.023.195.003.289a.377.377 0 0 0 .084.148c.048.049.11.075.174.095.041.012.1.014.144.015.047.001.103-.009.148-.017.11-.019.213-.065.312-.116.084-.043.163-.097.244-.145.103-.062.201-.133.3-.203.093-.068.19-.133.285-.198.087-.059.173-.218.264-.269.013-.004.025-.106.038-.106h.016c.026 0 .051.128.076.146.035.029.07.107.103.14.052.051.106.122.162.169.052.043.106.095.162.131.034.018.068.04.104.053.046.018.09.036.137.049a1.433 1.433 0 0 0 .48.04c.18-.014.356-.044.533-.071l.17-.022c.148-.019.297-.01.445-.002.15.008.297.004.447-.004.071-.004.143-.005.215-.005.091 0 .178-.009.268-.022.101-.014.196-.047.29-.085.188-.078.361-.183.535-.289.141-.085.277-.177.414-.268.04-.027.077-.057.115-.086l.273-.206c.222-.168.431-.351.638-.537.02.173.038.347.065.52.013.08.03.158.047.236a.962.962 0 0 0 .11.268.592.592 0 0 0 .475.273c.106.007.21-.003.313-.016l-.019.002.014-.001c.02.003.033.008.046.014.068.028.164.006.224-.03a.29.29 0 0 0 .134-.173.293.293 0 0 0-.03-.224.31.31 0 0 0-.173-.133.513.513 0 0 0-.266-.021l-.095.016a1.686 1.686 0 0 1-.123.005l-.02-.005a.144.144 0 0 1-.034-.045c-.045-.128-.064-.267-.083-.403-.016-.133-.027-.266-.045-.399l.006.045c-.017-.14-.013-.288-.08-.416-.07-.133-.208-.244-.364-.244a.364.364 0 0 0-.195.063c-.063.041-.11.098-.163.149-.039.037-.08.071-.12.105-.165.146-.335.286-.505.427l-.3.221a5.865 5.865 0 0 1-.294.201c-.107.069-.216.136-.325.202-.119.07-.239.141-.364.199-.08.03-.16.053-.244.068-.073.006-.147.006-.22.008-.057.001-.114.008-.169.013a5.152 5.152 0 0 1-.304.014c-.054.002-.108-.003-.162-.004a2.71 2.71 0 0 0-.44.022l-.456.068c-.079.009-.158.018-.238.024a1.101 1.101 0 0 1-.199-.005 1.158 1.158 0 0 1-.173-.045.765.765 0 0 1-.093-.059 2.335 2.335 0 0 1-.109-.093c-.042-.04-.083-.081-.128-.118-.108-.087-.22-.175-.36-.199a.65.65 0 0 0-.41.059c-.065.034-.126.076-.187.116-.102.068-.205.135-.307.204-.114.078-.225.16-.34.233-.108.067-.216.135-.329.19l.011-.157.02-.305a2.551 2.551 0 0 0-.002-.41c-.006-.06-.009-.12-.02-.179a.538.538 0 0 0-.057-.154.314.314 0 0 0-.177-.143.369.369 0 0 0-.203-.006.397.397 0 0 0-.175.096c-.038.041-.069.087-.102.133-.08.095-.159.19-.237.286l-.136.169c.034-.102.07-.203.106-.304.08-.224.164-.447.241-.671l.243-.707c.054-.155-.059-.328-.21-.37a.295.295 0 0 0-.23.03zM53.36 118.326l.02.004-.02-.004zm5.933-.137l.018.008c-.006-.004-.012-.005-.018-.008zm-5.155-3.64l.03.003c-.01 0-.02-.003-.03-.004zm-.32-.558c-.044.025-.083.105-.124.136-.033.026-.062.08-.091.112-.065.07-.121.16-.174.239-.054.08-.095.174-.134.262a3.627 3.627 0 0 0-.128.348c-.062.198-.106.4-.138.605-.037.231-.143.468-.163.703-.026.296-.112.596-.112.894v.316c0 .058.077.117.08.175.004.087.047.172.05.26.006.126.026.252.045.377.007.042.023.082.03.123.009.047.037.09.06.13.059.095.166.145.268.18a.546.546 0 0 0 .04.005.25.25 0 0 0 .115.006.553.553 0 0 0 .16-.04c.112-.047.216-.106.314-.178.07-.052.139-.109.208-.163l.205-.16c.133-.1.272-.192.424-.263a.858.858 0 0 1 .129-.037.842.842 0 0 1 .087 0 .57.57 0 0 1 .092.025c.04.021.08.044.118.07.1.085.185.181.267.284l.24.328c.05.07.105.137.165.199.062.064.13.118.202.172.07.054.157.09.237.123.076.03.15.05.23.062a1.25 1.25 0 0 0 .519-.026c.086-.021.169-.063.249-.1a1.819 1.819 0 0 0 .573-.47 4.027 4.027 0 0 0 .537-.866 7.93 7.93 0 0 0 .182-.412 7.764 7.764 0 0 0 .129.76c.016.08.049.153.08.227.038.087.1.165.178.22a.647.647 0 0 0 .223.093c.105.024.21.01.313-.017.08-.022.158-.063.233-.097.087-.041.167-.089.246-.142.156-.102.317-.195.486-.274a1.67 1.67 0 0 1 .3-.084.955.955 0 0 1 .13-.002c.06.012.116.029.173.049.115.052.225.111.327.186.139.109.278.217.42.322a1.595 1.595 0 0 0 .581.245c.207.04.426.022.634-.002.225-.026.449-.052.676-.047.213.006.425.03.637.038.1.004.2.004.3-.003a2.82 2.82 0 0 0 .355-.05c.096-.02.184-.056.274-.095a.985.985 0 0 0 .242-.17c.118-.103.105-.301 0-.406a.29.29 0 0 0-.407 0l-.045.04a.923.923 0 0 1-.091.056c-.09.032-.183.052-.277.067-.246.028-.492.005-.738-.01a4.53 4.53 0 0 0-.35-.011c-.12 0-.24.013-.358.023-.128.013-.254.034-.383.043a2.115 2.115 0 0 1-.347.002 1.546 1.546 0 0 1-.23-.066 1.365 1.365 0 0 1-.202-.118c-.07-.05-.138-.103-.207-.154l-.241-.19a1.69 1.69 0 0 0-.3-.166 1.24 1.24 0 0 0-.512-.127c-.072 0-.146.014-.217.026-.236.037-.451.146-.657.258-.1.053-.193.115-.287.177-.085.056-.174.233-.266.275-.032.011-.064.16-.097.16h-.01c-.006 0-.013-.135-.013-.135-.015-.017-.023-.098-.031-.113-.026-.077-.04-.188-.056-.268a7.268 7.268 0 0 1-.061-.36 6.838 6.838 0 0 1-.05-.87c.003-.142.01-.288.015-.43.005-.156.008-.314.012-.47a.273.273 0 0 0-.344-.266c-.063.018-.135.064-.163.125a1.613 1.613 0 0 0-.062.15c-.02.053-.028.114-.042.17-.011.043-.025.087-.037.13-.024.08-.046.16-.072.24l-.12.365a7.2 7.2 0 0 1-.19.508 8.046 8.046 0 0 1-.245.513 3.88 3.88 0 0 1-.335.523 1.932 1.932 0 0 1-.27.28 1.633 1.633 0 0 1-.245.147c-.053.02-.107.035-.163.046-.065.007-.13.008-.196.003a1.02 1.02 0 0 1-.153-.042 1.18 1.18 0 0 1-.138-.08 1.534 1.534 0 0 1-.17-.173c-.08-.106-.156-.213-.235-.32a1.93 1.93 0 0 0-.522-.517c-.063-.04-.133-.065-.201-.093-.068-.025-.142-.031-.214-.04a1.045 1.045 0 0 0-.475.097c-.26.115-.48.293-.701.468l.037-.029c-.078.06-.154.123-.231.184a1.903 1.903 0 0 1-.171.109c-.014-.154-.015-.31-.02-.463-.004-.102 0-.206 0-.307l.007-.388c.003-.177.016-.355.028-.531.012-.18.033-.36.056-.538a5.84 5.84 0 0 1 .098-.541c.04-.17.094-.337.158-.499a1.79 1.79 0 0 1 .184-.32c.036-.043.073-.082.113-.12.013-.007.026-.1.04-.108.013-.005.026-.095.039-.095h.027c.015 0 .029.102.043.112.054.046.102.14.147.195.126.17.23.372.315.566.066.16.123.335.177.5a.3.3 0 0 0 .37.218c.153-.041.262-.213.21-.368a7.09 7.09 0 0 0-.223-.595 2.773 2.773 0 0 0-.508-.778c-.067-.07-.151-.216-.234-.266-.093-.057-.203-.163-.31-.163h-.016c-.117 0-.234.127-.335.183zM158.92 142.664c0 .007-.002.014-.003.02l.003-.02zm-.059-1.757l.002.018-.002-.012v-.006zm-.006-.042l.005.034-.005-.034zm-4.015-1.71l-.016.007.016-.007zm4.997-8.427c-.054.009-.106.067-.158.083-.089.027-.175.09-.257.133-.08.042-.152.11-.223.166-.15.117-.267.284-.375.439-.225.324-.37.695-.483 1.072-.118.397-.172.81-.216 1.222-.044.42-.057.842-.052 1.264.005.424.04.847.084 1.269.038.362.097.722.15 1.082.031.228.067.455.105.682.108.634.214 1.269.318 1.904.046.285.09.57.13.856.038.29.064.58.081.87.018.315.011.626-.027.938a3.53 3.53 0 0 1-.237.887 3.152 3.152 0 0 1-.368.627c-.114.14-.24.268-.38.382-.149.11-.306.204-.474.279a2.42 2.42 0 0 1-.523.14 2.65 2.65 0 0 1-.623-.002 3.172 3.172 0 0 1-.716-.2 3.67 3.67 0 0 1-.724-.423 4.102 4.102 0 0 1-.665-.678 5.384 5.384 0 0 1-.655-1.125 4.864 4.864 0 0 1-.322-1.12 2.357 2.357 0 0 1-.006-.544c.027-.175.072-.344.136-.51a1.94 1.94 0 0 1 .204-.345c.135-.168.29-.322.46-.458a3.64 3.64 0 0 1 .407-.257c.141-.078.286-.15.433-.215.118-.047.236-.09.358-.125.148-.044.301-.066.454-.087.25-.032.501-.042.751-.06a4.8 4.8 0 0 1 .415-.018.245.245 0 0 0 .243-.243.245.245 0 0 0-.243-.244c-.139.002-.277.015-.415.027-.28.024-.56.04-.839.082a3.553 3.553 0 0 0-.577.125 3.918 3.918 0 0 0-.57.24 5.75 5.75 0 0 0-.473.265 2.913 2.913 0 0 0-.465.37 2.851 2.851 0 0 0-.365.427 2.068 2.068 0 0 0-.259.535c-.06.178-.09.364-.11.55-.022.21 0 .422.028.63.027.195.076.386.13.574a5.483 5.483 0 0 0 .78 1.635c.224.32.484.62.786.872.146.12.302.23.465.329.176.106.363.193.554.27a3.069 3.069 0 0 0 1.18.217 2.83 2.83 0 0 0 .571-.076c.2-.047.392-.126.573-.221a2.59 2.59 0 0 0 .881-.775c.238-.314.401-.68.515-1.056.056-.182.092-.37.118-.558.03-.214.05-.43.053-.646a6.784 6.784 0 0 0-.024-.621 11.813 11.813 0 0 0-.064-.65c-.082-.652-.192-1.302-.295-1.952l-.093-.573-.078-.482c-.012-.077-.027-.153-.037-.23l.008.063-.162-1.214a14.617 14.617 0 0 1-.083-1.418c0-.478.027-.954.088-1.428.032-.23.072-.458.127-.683.053-.216.124-.43.21-.637.093-.213.21-.412.35-.6a1.74 1.74 0 0 1 .221-.231c.06-.042.12-.077.185-.108a1.06 1.06 0 0 1 .185-.053.945.945 0 0 1 .092-.001c.05.01.096.024.143.04.06.029.115.06.168.097.082.072.153.152.221.237.073.096.143.195.206.298.075.123.14.253.2.384.113.283.187.58.248.878a.29.29 0 0 0 .138.18.302.302 0 0 0 .411-.108.312.312 0 0 0 .03-.232 4.545 4.545 0 0 0-.367-1.12 3.241 3.241 0 0 0-.283-.464 2.602 2.602 0 0 0-.39-.448c-.143-.125-.312-.302-.492-.358-.087-.027-.183-.131-.274-.131h-.007c-.048 0-.099.1-.145.108z" fill="#113B5E" mask="url(#b)"/><path d="M167.045 137.922l.01.008-.01-.007v-.001zm-.029-.033l.006.007-.004-.005-.002-.002zm.007-.011l.004.008-.002-.006-.002-.002zm3.395-.524l.01.022-.01-.022zm.303-5.61l-.002.012.002-.012zm.631-2.63c.013.302-.006.606-.044.906-.054.368-.15.73-.26 1.084-.107.35-.237.69-.378 1.028l.054-.412c.06-.437.138-.871.228-1.303a6.372 6.372 0 0 1 .368-1.234l.032-.07zm.095-.716c-.074.026-.146.047-.217.08-.038.019-.07.053-.1.082a.866.866 0 0 0-.087.106 1.95 1.95 0 0 0-.239.468 6.1 6.1 0 0 0-.176.497c-.06.199-.106.402-.149.605-.086.404-.155.809-.21 1.218-.026.195-.049.39-.07.585-.016.133-.034.268-.043.402l-.065.954a35.87 35.87 0 0 1-.736 1.388 27.644 27.644 0 0 1-1.11 1.85c-.117.18-.237.36-.366.532-.095.12-.197.232-.298.346a2.757 2.757 0 0 1-.29.29.987.987 0 0 1-.133.08.882.882 0 0 1-.055.017c-.023 0-.046.002-.069 0a.851.851 0 0 1-.039-.141c-.028-.26-.02-.521.001-.781.022-.28.054-.56.09-.838.015-.13.031-.26.043-.39.012-.134.021-.27.036-.406a1.402 1.402 0 0 0-.003-.41.513.513 0 0 0-.056-.174.414.414 0 0 0-.058-.081c-.027-.028-.056-.053-.084-.08a.255.255 0 0 0-.177-.072c-.06 0-.137.024-.177.073a29.87 29.87 0 0 0-.859 1.11c-.312.423-.62.848-.939 1.266a6.655 6.655 0 0 1-.226.277l.036-.28c.03-.193.06-.385.088-.577.02-.123.038-.246.06-.368.021-.132.041-.265.058-.398.016-.127.017-.255.021-.383a.257.257 0 0 0-.438-.182 1.626 1.626 0 0 0-.153.207c-.036.06-.066.124-.1.185l-.118.207a12.44 12.44 0 0 0-.165.298c-.127.237-.26.473-.379.714l-.046.092c.01-.084.018-.17.025-.254a3.73 3.73 0 0 0 .012-.518l-.008-.21a3.301 3.301 0 0 0-.03-.28.98.98 0 0 0-.14-.39.666.666 0 0 0-.15-.16c-.039-.03-.07-.054-.114-.074a.383.383 0 0 0-.162-.043.639.639 0 0 0-.098.01.865.865 0 0 0-.125.053c-.033.017-.063.039-.095.057-.038.022-.077.04-.114.062a3.684 3.684 0 0 0-.408.269 7 7 0 0 0-.8.71c-.256.26-.5.528-.723.817l.046-.06c-.067.087-.137.17-.203.258a.873.873 0 0 0-.139.284.435.435 0 0 0-.012.148c0 .055.014.105.041.152a.217.217 0 0 0 .06.088.364.364 0 0 0 .152.086l.104.019.08.01a.301.301 0 0 0 .232-.492l.031-.041.158-.207c.2-.255.421-.493.644-.728.217-.23.446-.448.694-.644a3.798 3.798 0 0 1 .46-.301l.004.006a.554.554 0 0 1 .03.053c.023.065.038.132.05.2.011.102.015.204.02.307.004.122.008.244.004.368-.007.246-.04.49-.072.735a8.569 8.569 0 0 1-.446 1.733c-.039.106.025.234.117.288a.259.259 0 0 0 .35-.091c.042-.072.087-.142.123-.217l.106-.22.24-.497c.116-.241.234-.481.351-.721.11-.226.218-.451.334-.674l.093-.178-.052.35c-.039.264-.067.529-.1.792-.017.092-.043.18-.023.275a.28.28 0 0 0 .074.146c.03.033.066.058.103.083.1.068.237.035.321-.041.115-.106.234-.206.345-.317.112-.112.21-.24.308-.363.15-.191.295-.385.436-.581.17-.235.34-.47.508-.706.188-.261.376-.521.57-.78-.007.06-.015.12-.02.18-.01.094-.014.188-.022.28-.01.115-.025.228-.038.34-.05.41-.096.823-.103 1.237-.004.195.005.397.044.589a.922.922 0 0 0 .091.237.37.37 0 0 0 .082.098.542.542 0 0 0 .172.093c.041.016.096.02.138.025.037.003.073.004.11.003a.75.75 0 0 0 .268-.067c.164-.072.302-.193.427-.32a5.919 5.919 0 0 0 .703-.869c.103-.152.2-.31.297-.466.11-.175.218-.35.324-.526a35.513 35.513 0 0 0 .885-1.602l-.015.417c-.008.24-.019.48-.024.719-.006.27-.01.54-.017.81-.004.144-.004.288-.01.43a8.01 8.01 0 0 0-.009.22 1.743 1.743 0 0 1-.006.102c-.003.046-.006.089-.005.135.001.049.012.099.02.148.014.085.1.156.178.177a.26.26 0 0 0 .247-.065l.138-.125c.044-.042.083-.09.122-.136.077-.093.15-.19.228-.283a4.697 4.697 0 0 1 .371-.392c.043-.04.083-.082.126-.121.007-.005.014-.01.021-.013l.007-.002.05-.001.02.006.002.002a.625.625 0 0 1 .067.069c.037.05.072.102.108.153.05.07.096.142.14.217.044.077.087.155.135.229.06.093.134.178.205.26.12.14.26.263.414.36.073.048.153.084.232.118.101.044.203.082.308.115.178.056.365.076.548.105.072.01.144.024.216.035l.526.084c.134.02.266.053.4.08.128.027.256.055.385.085.072.016.145.034.218.048.104.02.21.036.315.05.113.015.23.014.343.01.18-.006.36-.04.538-.054.04-.004.077-.005.115-.006a.289.289 0 0 0 .286-.286.288.288 0 0 0-.083-.202c-.05-.05-.13-.091-.203-.084-.187.019-.372.06-.559.088-.155.017-.31.02-.467.004-.205-.031-.406-.08-.609-.123-.173-.04-.347-.071-.52-.106-.064-.013-.128-.021-.19-.031-.12-.02-.239-.04-.357-.058l-.308-.05a4.532 4.532 0 0 1-.366-.068 1.728 1.728 0 0 1-.582-.257 2.406 2.406 0 0 1-.314-.332 2.746 2.746 0 0 1-.17-.28c-.062-.11-.135-.211-.206-.314a1.194 1.194 0 0 0-.214-.256.627.627 0 0 0-.176-.105.721.721 0 0 0-.206-.038c-.059-.004-.12.009-.179.02a.515.515 0 0 0-.162.069.91.91 0 0 0-.144.119l-.15.147c-.146.14-.277.294-.402.452 0-.128-.002-.256.001-.384.007-.272.01-.546.023-.818l.05-.994c.008-.191.017-.381.033-.571l.048-.593c.121-.26.238-.52.351-.783.192-.446.37-.898.517-1.361.144-.453.255-.916.315-1.388.03-.235.045-.473.05-.71.002-.107 0-.215 0-.322 0-.128-.017-.252-.045-.376-.02-.1-.127-.176-.23-.176a.187.187 0 0 0-.062.01zM142.086 137.393zm.008.019l-.005-.012-.003-.007a.087.087 0 0 1 .005.013l.003.006zm-11.61 8.047l-.002.017.002-.017zm3.84-.037l-.017.04.017-.04zm1.323-6.288l-.03.332c-.06.585-.113 1.172-.19 1.756a19.373 19.373 0 0 1-.415 2.15 14.75 14.75 0 0 1-.688 2.048c-.259.605-.553 1.197-.95 1.722-.07.088-.144.173-.22.254a2.232 2.232 0 0 1-.686.491c-.13.05-.26.09-.398.113-.12.012-.24.01-.36-.001a1.472 1.472 0 0 1-.293-.078c-.11-.05-.212-.11-.309-.181a1.592 1.592 0 0 1-.222-.22 2.183 2.183 0 0 1-.225-.396 2.985 2.985 0 0 1-.179-.655 4.353 4.353 0 0 1 .005-1.033c.058-.395.162-.78.313-1.148a8.267 8.267 0 0 1 1.048-1.733c.763-.98 1.667-1.84 2.648-2.598-.015.01-.029.023-.044.034.39-.298.787-.585 1.195-.857zm7.168-1.547l-.022.004v-.001l.022-.003zm-.057-.007l.02.008h-.002l-.012-.005-.006-.003zm-1.14-.95c.01 0 .02.002.03.004l-.03-.004zm-.602-4.334zm1.065-1.28l.011.009-.01-.008zm-.008 0a.168.168 0 0 1 .023.034.828.828 0 0 1 .031.112c.017.178.001.36-.02.537a5.487 5.487 0 0 1-.381 1.37 7.32 7.32 0 0 1-.905 1.539 8.48 8.48 0 0 1-.497.574 17.8 17.8 0 0 1 .241-1.397c.11-.49.241-.98.432-1.443.131-.302.28-.597.475-.862.1-.126.208-.244.332-.346.05-.035.1-.066.153-.092a.66.66 0 0 1 .087-.024l.03-.001zm-.037-.022c.01.003.017.007.024.01h.001l-.017-.006-.008-.004zm-4.73-.364c-.089.143-.177.286-.259.433a5.809 5.809 0 0 0-.262.538c-.16.37-.266.76-.356 1.154-.18.79-.299 1.592-.397 2.396-.049.399-.092.799-.136 1.199a3.859 3.859 0 0 0-.018.188l-.083.932-.1 1.128-.304.2c-.17.112-.337.23-.505.347-.325.228-.645.463-.956.71a16.226 16.226 0 0 0-1.714 1.569c-.266.283-.515.578-.753.884a9.113 9.113 0 0 0-.658.949 6.88 6.88 0 0 0-.518 1.05 4.91 4.91 0 0 0-.279 1.152 4.28 4.28 0 0 0 .018 1.153c.025.17.07.338.127.5.061.176.14.346.235.505a1.745 1.745 0 0 0 1.035.777 1.8 1.8 0 0 0 .263.042c.184.02.373.003.553-.035.172-.037.34-.108.495-.186.172-.086.328-.203.475-.327.29-.242.518-.547.724-.86a8.26 8.26 0 0 0 .553-.995c.17-.355.322-.718.462-1.085a16.18 16.18 0 0 0 .684-2.31c.087-.393.162-.79.226-1.188.064-.404.115-.81.163-1.214.042-.358.085-.716.121-1.075l.04-.382.462-.307c.456-.302.916-.6 1.374-.9a18.23 18.23 0 0 0 1.727-1.28l-.02.243-.049.564c-.005.058-.005.116-.007.173l-.018.457c-.019.488-.039.976-.038 1.464.001.08.043.155.112.195.065.038.164.046.228 0l.085-.06a.552.552 0 0 0 .135-.13c.068-.09.12-.186.168-.287.048-.103.09-.21.14-.311.052-.112.11-.222.164-.334.206-.417.427-.832.706-1.206.11-.14.226-.271.353-.394l.027.029c.151.217.255.462.358.705.043.099.087.197.132.296a.742.742 0 0 0 .216.295.498.498 0 0 0 .556.095c.07-.027.135-.06.2-.096.105-.058.195-.145.283-.226l.134-.121c.056-.051.112-.103.17-.153l.062.132c.048.103.098.206.154.304.05.09.116.173.18.253.071.09.17.16.266.22.198.125.435.16.664.17.107.005.215-.01.322-.02.124-.011.248-.031.372-.05.11-.013.221-.025.332-.04.104-.011.21-.017.314-.025.104-.008.207-.012.311-.017.204-.01.406-.012.61.01.18.028.36.077.53.145.03.013.06.025.091.035.085.028.167.01.244-.028a.294.294 0 0 0-.149-.549l-.083-.026-.102-.03a3.198 3.198 0 0 0-1.01-.116l-.294.014a11.42 11.42 0 0 0-1.078.117 6.25 6.25 0 0 1-.272.026 1.589 1.589 0 0 1-.276-.006 1.031 1.031 0 0 1-.174-.044 1.102 1.102 0 0 1-.14-.082.988.988 0 0 1-.09-.093 1.821 1.821 0 0 1-.154-.254c-.049-.101-.098-.202-.145-.304a.85.85 0 0 0-.204-.272.435.435 0 0 0-.178-.096.338.338 0 0 0-.264.05c-.048.03-.093.073-.137.109-.04.032-.078.07-.116.106l-.089.08-.118.106c-.063.057-.124.116-.189.17a1.492 1.492 0 0 1-.16.093l-.024.007c-.016-.015-.032-.03-.047-.047-.044-.07-.077-.147-.114-.222-.048-.097-.087-.2-.132-.297-.04-.09-.08-.18-.122-.267a2.45 2.45 0 0 0-.143-.248 1.117 1.117 0 0 0-.188-.234.564.564 0 0 0-.317-.14.376.376 0 0 0-.302.106c-.064.064-.128.13-.189.198a5.747 5.747 0 0 0-.727 1.043 9.233 9.233 0 0 0-.3.586c-.047.096-.095.192-.14.289 0-.037.001-.074.003-.11l.054-1.004c.01-.191.031-.38.05-.57l.082-.831c.298-.281.58-.58.835-.9.237-.295.451-.61.642-.936.197-.337.362-.692.501-1.057.14-.364.234-.743.3-1.127.032-.19.05-.38.057-.571a1.357 1.357 0 0 0-.025-.27.612.612 0 0 0-.114-.261.435.435 0 0 0-.223-.173.622.622 0 0 0-.254-.02c-.05.008-.096.015-.144.028-.046.013-.089.035-.132.054-.096.042-.179.11-.26.174a2.068 2.068 0 0 0-.352.367 3.445 3.445 0 0 0-.314.486c-.179.33-.32.683-.433 1.04-.115.369-.206.746-.282 1.123a17.865 17.865 0 0 0-.238 1.644l-.022.262c-.275.25-.562.488-.855.717-.4.307-.814.595-1.237.869l-.933.606-.535.35.012-.114.144-1.413a50.99 50.99 0 0 1 .195-1.612l-.01.073c.075-.557.162-1.113.274-1.664.058-.28.12-.558.191-.834.067-.26.144-.516.245-.764.077-.174.164-.344.255-.512.086-.161.186-.314.282-.468a.304.304 0 0 0-.107-.412.303.303 0 0 0-.412.108zM35.886 101.69c.01 0 .018.002.028.004l-.028-.004m-1.134-.516c-.239.016-.476.04-.715.064-.362.035-.725.09-1.087.15-.059.01-.116.063-.146.113a.242.242 0 0 0-.023.188.24.24 0 0 0 .3.17c.188-.034.378-.064.569-.093l.322-.041c.118-.015.239-.023.358-.034.174-.016.346-.03.522-.04.18-.01.36-.015.54-.007.158.006.316.023.472.043.137.02.27.045.403.079a2.58 2.58 0 0 1 .831.393c.066.055.127.114.181.18.058.08.107.166.148.257.028.073.05.146.065.222a.762.762 0 0 1 0 .117 1.277 1.277 0 0 1-.06.2 1.73 1.73 0 0 1-.172.305 3.324 3.324 0 0 1-.515.504c-.162.12-.337.224-.52.307-.09.034-.18.06-.273.077a1.286 1.286 0 0 1-.215 0 .596.596 0 0 1-.093-.024.723.723 0 0 1-.084-.051 1.031 1.031 0 0 1-.088-.087.827.827 0 0 1-.066-.116 1.257 1.257 0 0 1-.063-.233 1.96 1.96 0 0 1 .004-.351 2.56 2.56 0 0 1 .139-.495c.034-.076.072-.15.119-.22.058-.064.122-.126.183-.19a.28.28 0 0 0 0-.39c-.104-.104-.288-.11-.391 0a5.559 5.559 0 0 1-.15.157 1.162 1.162 0 0 0-.16.216c-.049.082-.084.17-.12.259a2.4 2.4 0 0 0-.169.9c.002.1.017.2.035.3.02.103.064.2.105.296.035.083.09.152.145.223.056.074.135.13.21.186a.84.84 0 0 0 .248.116c.048.014.1.019.149.025.055.007.11.009.166.009a1.45 1.45 0 0 0 .538-.118c.195-.081.379-.184.55-.306.157-.111.304-.24.441-.375.138-.137.267-.283.372-.447.044-.071.08-.15.114-.226.038-.086.072-.173.096-.264a1.04 1.04 0 0 0-.021-.564 1.755 1.755 0 0 0-.227-.461 1.48 1.48 0 0 0-.165-.198c-.07-.074-.156-.135-.239-.195a2.487 2.487 0 0 0-.444-.242 3.222 3.222 0 0 0-.566-.194 5.362 5.362 0 0 0-1.553-.094M43.067 103.773s.01 0 .016.002l-.016-.002zm-.004-.013l.016.006-.016-.006zm1.422-.135h-.008.008zm-.64-2.995l-.056.144a6.5 6.5 0 0 0-.058.148l-.138.35-.28.634a8.876 8.876 0 0 1-.475.904 3.04 3.04 0 0 1 .023-.285c.046-.306.132-.604.248-.891.103-.233.23-.456.382-.661.094-.116.198-.22.313-.313l.042-.03zm.17-.066c.003 0 .004.002.004.002l-.003-.002zm.002-.01c.007 0 .013.002.02.003l-.02-.003zm-.14-.483c-.045.006-.091.029-.133.047a.94.94 0 0 0-.11.055c-.091.053-.174.125-.254.194a2.22 2.22 0 0 0-.361.413 3.343 3.343 0 0 0-.295.508 3.931 3.931 0 0 0-.34 1.125 3.321 3.321 0 0 0-.033.58c.006.145.024.289.053.43a1.505 1.505 0 0 1-.515.394c-.133.053-.27.089-.411.112a2.052 2.052 0 0 1-.422 0 1.888 1.888 0 0 1-.234-.053c.029-.036.057-.072.085-.11a.725.725 0 0 0 .104-.3.368.368 0 0 0-.013-.175.257.257 0 0 0-.068-.117c-.03-.037-.067-.062-.105-.09l-.095-.04a1.994 1.994 0 0 0-.108-.014c-.013 0-.027.003-.04.004a.675.675 0 0 0-.249.071.885.885 0 0 0-.211.136.39.39 0 0 0-.086.1c-.024.044-.042.09-.06.136-.017.047-.018.1-.022.15a.589.589 0 0 0 .029.19c.009.032.02.06.034.089a1.415 1.415 0 0 1-.171.093 3.119 3.119 0 0 1-.673.17c-.252.038-.505.072-.76.107-.065.009-.131.07-.163.126a.274.274 0 0 0 .099.378l.065.028a.282.282 0 0 0 .147 0l.566-.081c.207-.03.413-.058.613-.115a2.18 2.18 0 0 0 .516-.214c.058-.033.113-.074.165-.117a1.65 1.65 0 0 0 .487.153c.409.069.842.015 1.22-.157a1.8 1.8 0 0 0 .463-.311l.01.017a.6.6 0 0 0 .118.133.703.703 0 0 0 .21.13c.137.056.284.038.424 0s.272-.101.395-.177c.117-.072.232-.148.347-.223.113-.073.225-.281.345-.341a2.01 2.01 0 0 0 .007-.133h.022c.039 0 .076.15.113.164.043.019.084.105.125.128.07.039.148.099.225.125a.823.823 0 0 0 .503-.002c.153-.048.293-.118.422-.212.13-.096.258-.194.377-.302.147-.133.29-.268.427-.411l.103.158c.069.1.157.19.25.27.193.165.439.253.68.323.119.034.242.053.364.072.078.012.156.024.235.033l.355.042c.156.019.314.034.47.05.098.01.194.02.29.032l.127.013.084.006a.277.277 0 0 0 .323.035.276.276 0 0 0 .125-.163.283.283 0 0 0-.028-.21.373.373 0 0 0-.16-.17c-.068-.042-.147-.04-.222-.026-.123.006-.248-.01-.37-.02a9.307 9.307 0 0 1-.292-.028c-.225-.024-.45-.052-.673-.08-.133-.022-.266-.042-.398-.072a2.386 2.386 0 0 1-.348-.111 1.333 1.333 0 0 1-.19-.104 1.406 1.406 0 0 1-.17-.174c-.063-.093-.12-.19-.191-.277-.083-.104-.2-.196-.338-.203a.376.376 0 0 0-.202.043l-.075.058-.038.046a1.409 1.409 0 0 1-.09.099 5.764 5.764 0 0 1-.193.19c-.125.118-.25.236-.385.343a1.994 1.994 0 0 1-.353.229 1.193 1.193 0 0 1-.17.05c-.018.002-.035.002-.053.002a1.053 1.053 0 0 1-.121-.037c-.084-.04-.165-.087-.253-.12a.72.72 0 0 0-.34-.055.509.509 0 0 0-.145.033.987.987 0 0 0-.174.09c-.057.034-.112.074-.167.11l-.212.142c-.123.08-.245.253-.377.318-.068.028-.138.153-.211.153h-.017s-.005-.09-.007-.09c-.018-.01-.034-.063-.051-.074-.012-.011-.023-.043-.033-.055-.012-.02-.023-.051-.033-.072l-.032-.093c.014-.018.028-.04.042-.06.11-.148.207-.31.303-.468.11-.183.208-.375.302-.566.159-.322.295-.654.437-.983.065-.15.119-.304.177-.457l.103-.265c.03-.08.054-.161.079-.242.013-.042.015-.087.017-.131a.302.302 0 0 0-.08-.2.438.438 0 0 0-.321-.138.894.894 0 0 0-.136.013zM22.4 103.992a.97.97 0 0 0-.016.002l.015-.002zm.023-.014l.005.002.002.001-.006-.002zm-.025-.01l.022.008.002.002-.024-.01zm-2.923-.117zm4.276-.015l.006.008-.006-.008zm-1.123-.035l-.026.034c.01-.01.017-.023.026-.034zm-4.132-.309a.286.286 0 0 0-.006.013l.006-.013zm.02-.008l-.018.023.018-.023zm9.36-1.027l-.008.017.004-.01.003-.007zm-10.379-1.096l.001.001.014.018-.015-.019zm-.029-.027l.008.006-.008-.006zm-.2-.539c-.18.042-.337.14-.48.254a2.563 2.563 0 0 0-.695.871 3.302 3.302 0 0 0-.226.567c-.055.186-.083.38-.097.573-.017.214.004.433.05.642.02.09.051.175.086.26.037.09.08.177.132.26.108.168.262.304.43.408.162.1.348.138.534.157.204.022.413-.02.602-.097.092-.038.182-.08.268-.13.081-.048.155-.11.227-.17.064-.054.123-.112.18-.172.041.036.085.068.131.1.057.037.122.06.185.086.076.031.16.04.24.048a.781.781 0 0 0 .198-.012.926.926 0 0 0 .24-.079c.127-.055.238-.145.346-.23a2.7 2.7 0 0 0 .103-.084.949.949 0 0 0 .117.04c.052.015.106.017.16.025.098.013.205-.009.301-.027.098-.018.19-.06.28-.099.168-.074.32-.193.454-.316a2.498 2.498 0 0 0 .395-.486c.046.155.104.311.17.466.07.16.16.307.265.446.045.06.088.122.135.18.056.068.124.12.201.162a.591.591 0 0 0 .245.065.422.422 0 0 0 .14-.026.696.696 0 0 0 .131-.063c.065-.037.125-.089.182-.137.07-.06.123-.142.178-.214l-.014.018a6.21 6.21 0 0 0 .14-.19.89.89 0 0 0 .225.375.631.631 0 0 0 .192.113.745.745 0 0 0 .242.058c.14.008.277-.009.415-.029.09-.01.178-.023.268-.027.095-.004.19.002.283.013.096.014.193.032.287.056.11.03.216.063.323.1.12.04.253.055.38.06a1.985 1.985 0 0 0 .439-.071c.122-.038.242-.092.356-.15a2.08 2.08 0 0 0 .843-.771c.06-.09.11-.186.157-.282.076.12.163.232.253.342.127.156.266.301.417.432.311.27.678.482 1.075.591.097.026.195.043.293.062.118.025.241.038.361.02a.643.643 0 0 0 .264-.11c.06-.04.105-.09.124-.162a.269.269 0 0 0-.189-.333c-.064-.018-.152-.014-.208.027-.028.02-.054.037-.083.052l-.009.003a1.141 1.141 0 0 1-.143-.007l-.14-.024a2 2 0 0 1-.388-.114 2.76 2.76 0 0 1-.503-.304 3.351 3.351 0 0 1-.53-.547 2.628 2.628 0 0 1-.279-.464 1.69 1.69 0 0 1-.043-.132l.008-.025c.012-.035.02-.07.03-.106a.712.712 0 0 0 .015-.103c.006-.05-.005-.098-.012-.147a.269.269 0 0 0-.26-.198.465.465 0 0 0-.105.014c-.022.01-.043.02-.065.028a.276.276 0 0 0-.096.096c-.064.084-.074.197-.078.3a.72.72 0 0 0 .01.12c-.033.09-.07.177-.107.265-.09.2-.192.39-.32.567a1.794 1.794 0 0 1-.25.258c-.126.091-.26.17-.402.234a1.735 1.735 0 0 1-.33.094 1.178 1.178 0 0 1-.198.001c-.184-.035-.358-.109-.542-.145a4.65 4.65 0 0 0-.407-.063c-.2-.022-.402.007-.602.034a1.685 1.685 0 0 1-.284.015.55.55 0 0 1-.088-.025l-.019-.01-.006-.007a.885.885 0 0 1-.05-.084 4.606 4.606 0 0 1-.06-.189l-.045-.123c-.016-.04-.03-.089-.052-.128a.338.338 0 0 0-.058-.082c-.028-.033-.062-.057-.097-.082a.352.352 0 0 0-.16-.046c-.053-.002-.116.003-.159.035-.025.018-.05.037-.074.057-.03.03-.054.071-.076.107-.028.045-.055.091-.085.136a4.6 4.6 0 0 1-.203.298l-.018.023a1.056 1.056 0 0 1-.14.15.918.918 0 0 1-.067.042l-.02-.013a.682.682 0 0 1-.047-.047 4.566 4.566 0 0 1-.166-.228 1.846 1.846 0 0 1-.158-.298 3.466 3.466 0 0 1-.189-.765 5.561 5.561 0 0 1-.035-.387l.02-.09c.021-.103.036-.208.052-.312l.022-.13a.608.608 0 0 0 .011-.147.25.25 0 0 0-.036-.13.285.285 0 0 0-.035-.068.268.268 0 0 0-.227-.13.263.263 0 0 0-.252.193c-.02.081-.045.16-.059.243a3.07 3.07 0 0 0-.018.538 3.584 3.584 0 0 1-.109.322 2.7 2.7 0 0 1-.3.521 2.164 2.164 0 0 1-.305.315 1.645 1.645 0 0 1-.268.16 1.189 1.189 0 0 1-.177.048.91.91 0 0 1-.117.003.732.732 0 0 1-.092-.024l-.017-.01a.267.267 0 0 0-.231-.111.267.267 0 0 0-.189.078.98.98 0 0 0-.08.102c-.045.05-.096.094-.148.136l-.099.074a.834.834 0 0 1-.149.083.71.71 0 0 1-.079.022.832.832 0 0 1-.1 0 .744.744 0 0 1-.095-.029.87.87 0 0 1-.098-.058c-.012-.01-.023-.022-.034-.033l.046-.068c.05-.072.084-.15.115-.23.086-.224-.06-.502-.31-.507a.425.425 0 0 0-.359.161.606.606 0 0 0-.115.188.608.608 0 0 0-.032.247.726.726 0 0 0 .036.19 1.949 1.949 0 0 1-.285.279 1.564 1.564 0 0 1-.26.147 1.379 1.379 0 0 1-.226.066 1.284 1.284 0 0 1-.232 0 1.105 1.105 0 0 1-.186-.048 1.026 1.026 0 0 1-.155-.093 1.242 1.242 0 0 1-.142-.139 1.299 1.299 0 0 1-.115-.202 1.735 1.735 0 0 1-.092-.339 2.257 2.257 0 0 1 .004-.493 2.586 2.586 0 0 1 .474-1.139c.11-.135.232-.259.366-.369.06-.042.12-.218.184-.249.02-.007.04-.156.06-.156h.024c.02 0 .04.148.06.155.007.003.014.076.02.08.054.088.104.213.153.304.07.133.252.19.378.117a.272.272 0 0 0 .1-.37 3.917 3.917 0 0 0-.122-.209c-.04-.067-.08-.135-.14-.187a.754.754 0 0 0-.409-.159c-.019-.002-.039-.002-.059-.002a.556.556 0 0 0-.122.013zM123.109 115.31c1.857.004 3.714.006 5.572.008l1.943.003c.179 0 .358 0 .538.003l9.477.143c.645.01 1.289.018 1.934.036l4.754.132c2.209.06 4.418.114 6.626.193l10.27.367c4.69.168 9.382.354 14.073.52l2.882.102c.419.014.837.03 1.256.042 1.658.048 3.316.099 4.974.156a.54.54 0 0 1 .313.096.308.308 0 0 1 .132.239c.002.177-.197.354-.437.345-1.578-.055-3.156-.108-4.734-.16-1.271-.04-2.541-.095-3.812-.145-2.52-.098-5.04-.201-7.558-.304-5.66-.231-11.318-.454-16.977-.678-.622-.024-1.244-.051-1.866-.071l-4.552-.146-5.043-.161c-.268-.01-.535-.021-.802-.026l-1.042-.02-9.675-.18c-.727-.014-1.455-.012-2.183-.015l-5.55-.024-2.094-.01c-.211 0-.423-.003-.634-.001l-4.325.045-4.5.046c-.216.002-.432.008-.65.013l-2.204.05c-2.53.06-5.06.117-7.588.182-2.588.065-5.176.13-7.765.197l-5.324.136c-.927.023-1.853.055-2.78.086l-4.317.147c-.18.006-.361.017-.541.026-.45.02-.898.042-1.347.064l-2.101.1c-.232.01-.464.026-.696.04l-1.415.082-1.926.114c-.603.036-1.207.068-1.811.1-.64.037-1.28.079-1.92.109-.226.01-.417-.146-.42-.315-.001-.167.186-.332.412-.324.57.017 1.144.013 1.715.004.289-.004.577-.007.866-.014.338-.01.678-.013 1.016-.026.594-.024 1.188-.044 1.78-.072l2.315-.11c1.32-.061 2.643-.114 3.964-.172.368-.016.736-.025 1.104-.038l2.758-.091c.989-.033 1.978-.07 2.968-.095l5.214-.136a6269.772 6269.772 0 0 1 15.275-.396l2.435-.062c.285-.007.57-.017.856-.021l4.036-.051 4.735-.06.05-.001c.783-.01 1.564-.001 2.346 0" fill="#113B5E" mask="url(#b)"/><path d="M41.672 48.495l-14.663 4.212c.07.999.021.739.078 1.526l15.171 2.704a.525.525 0 0 0 .615-.554l-.533-7.421a.525.525 0 0 0-.669-.467" fill="#852E1D" mask="url(#b)"/><path d="M145.9 50.02L42.67 57.447a3.558 3.558 0 0 1-3.803-3.294l-.172-2.382a3.559 3.559 0 0 1 3.294-3.805l103.23-7.425a3.558 3.558 0 0 1 3.805 3.294l.17 2.382a3.559 3.559 0 0 1-3.293 3.805" fill="#EA4124" mask="url(#b)"/><path d="M183.047 48.504l-50.651 3.643a3.558 3.558 0 0 1-3.805-3.294l-.337-4.68a3.558 3.558 0 0 1 3.294-3.805l50.652-3.644a3.558 3.558 0 0 1 3.804 3.294l.337 4.681a3.559 3.559 0 0 1-3.294 3.805" fill="#CC3C27" mask="url(#b)"/><path fill="#CC3C27" mask="url(#b)" d="M183.994 37.327l-.269-3.745-44.939 3.233.17 2.34 34.171-2.458.101 1.404z"/><path fill="#852E1D" mask="url(#b)" d="M184.567 46.267l-.996.072-.543-7.546.996-.072zM182.59 46.409l-.995.072-.543-7.546.996-.072zM180.614 46.551l-.995.072-.543-7.546.995-.072zM178.638 46.693l-.996.072-.543-7.546.996-.072zM176.662 46.836l-.996.072-.543-7.547.996-.072zM174.686 46.978l-.996.072-.543-7.546.996-.072z"/></g></svg>