<svg width="169" height="185" viewBox="0 0 169 185" xmlns="http://www.w3.org/2000/svg" xmlns:xlink="http://www.w3.org/1999/xlink"><defs><path id="a" d="M0 198.388h207.429V0H0z"/></defs><g transform="translate(-39 -14)" fill="none" fill-rule="evenodd"><path d="M109.849 93.77H62.413V50.944c0-13.099 10.64-23.583 23.74-23.583h-.012c13.1 0 23.707 10.484 23.707 23.583V93.77zm-23.75-78.86h.07c-19.38 0-35.021 15.83-35.021 35.211v63.216h69.967V50.121c0-19.381-15.635-35.211-35.016-35.211z" fill="#99B1BF"/><mask id="b" fill="#fff"><use xlink:href="#a"/></mask><path fill="#708DA0" mask="url(#b)" d="M51.148 72.204h11.266V65.5H51.148zM109.849 72.204h11.266V65.5h-11.266zM89.014 27.361h.011z"/><path d="M127.5 157.352H44.763a5.245 5.245 0 0 1-5.245-5.245V74.743a5.245 5.245 0 0 1 5.245-5.245H127.5a5.245 5.245 0 0 1 5.245 5.245v77.364a5.245 5.245 0 0 1-5.245 5.245" fill="#82CDE6" mask="url(#b)"/><path d="M127.538 69.498H44.724a5.208 5.208 0 0 0-5.208 5.208v74.607h93.23V74.706a5.208 5.208 0 0 0-5.208-5.208" fill="#4A6271" mask="url(#b)"/><path d="M57.284 69.498H44.683a5.166 5.166 0 0 0-5.166 5.166v77.522a5.165 5.165 0 0 0 5.166 5.166h12.6V69.498z" fill="#252E33" mask="url(#b)"/><path d="M97.356 97.124l-22.45 26.757" stroke="#FFF" stroke-width="4" stroke-linecap="round" mask="url(#b)"/><path d="M82.873 101.646a5.6 5.6 0 1 1-11.199 0 5.6 5.6 0 0 1 11.199 0zM100.586 119.36a5.6 5.6 0 1 1-11.198-.001 5.6 5.6 0 0 1 11.198 0z" stroke="#FFF" stroke-width="4" mask="url(#b)"/><g mask="url(#b)"><path d="M116.716 145.063h16.03" fill="#EDF4F3"/><path d="M116.716 145.063h16.03" stroke="#82CDE6" stroke-width="2"/></g><g mask="url(#b)"><path d="M116.716 140.208h16.03" fill="#EDF4F3"/><path d="M116.716 140.208h16.03" stroke="#82CDE6" stroke-width="2"/></g><g mask="url(#b)"><path d="M116.716 135.354h16.03" fill="#EDF4F3"/><path d="M116.716 135.354h16.03" stroke="#82CDE6" stroke-width="2"/></g><g mask="url(#b)"><path d="M116.716 130.5h16.03" fill="#EDF4F3"/><path d="M116.716 130.5h16.03" stroke="#82CDE6" stroke-width="2"/></g><path d="M193.841 121.154a2.733 2.733 0 0 1-3.794.726l-9.47-6.43a2.713 2.713 0 0 1-.76-.775 2.733 2.733 0 0 1 3.827-3.745l9.472 6.429a2.731 2.731 0 0 1 .726 3.794l.001-.001v.002h-.002zm1.61-17.426c-12.483-8.474-29.472-5.224-37.947 7.259-6.816 10.04-6.04 22.993 1.016 32.088l-4.463 6.574-1.769 2.607-5.434 8.004-.835 8.554-7.574 3.833-.554 4.2-3.633 1.968 1.687 7.748-8.158 1.783-1.844 10.042 15.836-.543 30.733-45.271c11.057 3.202 23.381-.858 30.197-10.9 8.475-12.482 5.225-29.472-7.258-37.946z" fill="#EDB31E" mask="url(#b)"/><path fill="#EDB31E" mask="url(#b)" d="M152.01 146.596l19.632 13.327 8.071-9.699-21.667-14.71z"/><path d="M132.233 198.172l1.358-.047 27.885-41.077a.548.548 0 0 0-.145-.76l-.001-.002a.547.547 0 0 0-.761.146l-28.336 41.74zM128.526 198.211l1.358-.047 29.073-42.826a.547.547 0 0 0-.146-.76l-.001-.002a.548.548 0 0 0-.761.145l-29.523 43.49zM154.343 149.229l13.992 9.498.616-.907-13.992-9.5z" fill="#B7875D" mask="url(#b)"/><path d="M161.092 113.422c-7.13 10.502-4.395 24.795 6.107 31.924 10.502 7.13 24.795 4.396 31.924-6.106 7.129-10.502 4.395-24.795-6.107-31.925-10.502-7.13-24.795-4.395-31.924 6.107z" stroke="#B7875D" mask="url(#b)"/></g></svg>