<svg xmlns="http://www.w3.org/2000/svg" viewBox="0 0 13 13"><circle fill="#1c5291" cx="6.5" cy="6.5" r="6"/><path fill="#fff" d="M4.23 4.46a2.35 2.35 0 0 1 .49-.78 2.21 2.21 0 0 1 .76-.52 2.58 2.58 0 0 1 1-.19 3.14 3.14 0 0 1 1.19.19 2.32 2.32 0 0 1 .77.49 1.76 1.76 0 0 1 .42.63 1.8 1.8 0 0 1 .14.63 2.14 2.14 0 0 1-.12.79 2 2 0 0 1-.31.53 2.06 2.06 0 0 1-.41.38l-.42.31a2 2 0 0 0-.35.35 1 1 0 0 0-.2.5v.38h-1.4V7.7A2.05 2.05 0 0 1 6 7a2.09 2.09 0 0 1 .31-.5 2.53 2.53 0 0 1 .38-.35L7 5.83a1.35 1.35 0 0 0 .3-.33.82.82 0 0 0 .09-.5.91.91 0 0 0-.23-.68.86.86 0 0 0-.62-.22 1 1 0 0 0-.46.1.93.93 0 0 0-.32.28 1.21 1.21 0 0 0-.19.41 2 2 0 0 0-.06.51H4a2.86 2.86 0 0 1 .23-.94zm3 4.29v1.54H5.65V8.75h1.57z"/></svg>
