<svg width="201" height="122" viewBox="0 0 201 122" xmlns="http://www.w3.org/2000/svg" xmlns:xlink="http://www.w3.org/1999/xlink"><defs><path id="a" d="M168.577.571H.024v119.132h168.553z"/><path id="c" d="M0 121.429h200.332V1H0z"/></defs><g transform="translate(.326 -.121)" fill="none" fill-rule="evenodd"><g transform="translate(16 .429)"><mask id="b" fill="#fff"><use xlink:href="#a"/></mask><path d="M161.881 119.703H6.72a6.696 6.696 0 0 1-6.696-6.696V7.267A6.696 6.696 0 0 1 6.72.57H161.88a6.696 6.696 0 0 1 6.696 6.696v105.741a6.696 6.696 0 0 1-6.696 6.696" fill="#CBD8DE" mask="url(#b)"/></g><mask id="d" fill="#fff"><use xlink:href="#c"/></mask><path fill="#82CDE6" mask="url(#d)" d="M23.391 106.049h153.85V10.13H23.391z"/><path stroke="#CBD8DE" stroke-width=".75" mask="url(#d)" d="M23.391 106.049h153.85V10.13H23.391z"/><path d="M189.965 121.429H10.366C7.071 121.429 0 118.733 0 115.438h200.332c0 3.295-7.072 5.991-10.367 5.991" fill="#99B1BF" mask="url(#d)"/><path d="M87.996 116.499h24.34c.585 0 1.061-.477 1.061-1.061H86.934c0 .584.478 1.06 1.062 1.06" fill="#FFF" mask="url(#d)"/><path d="M101.072 5.235a.772.772 0 1 1-1.545 0 .772.772 0 0 1 1.545 0" fill="#252E33" mask="url(#d)"/><path fill="#FFF" mask="url(#d)" d="M80.636 79.83h39.06v-3.485h-39.06zM80.636 85.814h39.06v-3.485h-39.06zM80.636 91.799h23.482v-3.485H80.636z"/><path stroke="#1C5191" stroke-width="2" stroke-linecap="round" stroke-linejoin="round" mask="url(#d)" d="M113.169 36.144l3.264 2.375 3.263 2.374-3.263 2.375-3.264 2.375"/><path stroke="#58A1B8" stroke-width="2" stroke-linecap="round" stroke-linejoin="round" mask="url(#d)" d="M87.163 59.608L83.9 57.234l-3.263-2.375 3.263-2.375 3.264-2.375"/><path d="M119.696 40.893h-37.77" stroke="#1C5191" stroke-width="2" stroke-linecap="round" stroke-linejoin="round" mask="url(#d)"/><path d="M80.636 54.859h37.77" stroke="#58A1B8" stroke-width="2" stroke-linecap="round" stroke-linejoin="round" mask="url(#d)"/></g></svg>