<svg width="201" height="122" viewBox="0 0 201 122" xmlns="http://www.w3.org/2000/svg" xmlns:xlink="http://www.w3.org/1999/xlink"><defs><path id="a" d="M168.577.571H.024v119.132h168.553z"/><path id="c" d="M0 121h200.332V.571H0z"/></defs><g fill="none" fill-rule="evenodd"><g transform="translate(-.174 .308)"><g transform="translate(16)"><mask id="b" fill="#fff"><use xlink:href="#a"/></mask><path d="M161.881 119.703H6.72a6.696 6.696 0 0 1-6.696-6.696V7.267A6.696 6.696 0 0 1 6.72.57H161.88a6.696 6.696 0 0 1 6.696 6.696v105.741a6.696 6.696 0 0 1-6.696 6.696" fill="#CBD8DE" mask="url(#b)"/></g><mask id="d" fill="#fff"><use xlink:href="#c"/></mask><path fill="#90BA5F" mask="url(#d)" d="M23.391 105.62h153.85V9.701H23.391z"/><path stroke="#CBD8DE" stroke-width=".75" mask="url(#d)" d="M23.391 105.62h153.85V9.701H23.391z"/><path d="M189.965 121H10.366C7.071 121 0 118.304 0 115.009h200.332c0 3.295-7.072 5.991-10.367 5.991" fill="#99B1BF" mask="url(#d)"/><path d="M87.996 116.07h24.34c.585 0 1.061-.477 1.061-1.061H86.934c0 .584.478 1.06 1.062 1.06" fill="#FFF" mask="url(#d)"/><path d="M101.072 4.806a.772.772 0 1 1-1.545 0 .772.772 0 0 1 1.545 0" fill="#252E33" mask="url(#d)"/><path d="M129.406 90.86H72.738a1.945 1.945 0 0 1-1.945-1.944V68.659c0-1.074.87-1.945 1.945-1.945h56.668c1.074 0 1.945.87 1.945 1.945v20.257a1.945 1.945 0 0 1-1.945 1.945" fill="#339457" mask="url(#d)"/></g><text font-family="HelveticaNeue-Bold, Helvetica Neue" font-size="13.005" font-weight="bold" fill="#FFF" transform="translate(-.174 -.121)"><tspan x="78.154" y="83.077">Sign up</tspan></text><g fill="#FFF"><path d="M61.815 43.677h70.998v-6.055H61.815zM61.815 34.183h37.442v-6.055H61.815zM102.117 34.183h42.864v-6.055h-42.864zM61.815 53.212h21.008v-5.994H61.815zM85.964 53.212h8.545v-5.994h-8.545zM98.219 53.212h20.806v-5.994H98.219z"/></g></g></svg>