<svg width="425" height="193" viewBox="0 0 425 193" xmlns="http://www.w3.org/2000/svg" xmlns:xlink="http://www.w3.org/1999/xlink"><defs><path id="a" d="M0 191.907h424.99V0H0z"/></defs><g transform="translate(.142 .9)" fill="none" fill-rule="evenodd"><path d="M283.456 189.84H36.203c-5.892 0-10.67-4.777-10.67-10.67V10.67C25.533 4.778 30.311 0 36.203 0h247.253c5.893 0 10.67 4.778 10.67 10.67v168.5c0 5.893-4.777 10.67-10.67 10.67z" fill="#CBD8DE"/><mask id="b" fill="#fff"><use xlink:href="#a"/></mask><path fill="#90BA5F" mask="url(#b)" d="M37.272 167.398h245.164V14.55H37.272z"/><path stroke="#CBD8DE" stroke-width=".75" mask="url(#b)" d="M37.272 167.398h245.164V14.55H37.272z"/><path d="M302.712 191.907H16.52c-5.253 0-16.52-4.297-16.52-9.548h319.231c0 5.25-11.269 9.548-16.52 9.548" fill="#99B1BF" mask="url(#b)"/><path d="M140.222 184.05h38.788c.93 0 1.691-.76 1.691-1.691h-42.17c0 .93.76 1.691 1.69 1.691" fill="#FFF" mask="url(#b)"/><path d="M161.06 6.75a1.23 1.23 0 1 1-2.462 0 1.23 1.23 0 0 1 2.462 0" fill="#252E33" mask="url(#b)"/><path d="M406.116 191.31h-58.82a2.574 2.574 0 0 1-2.566-2.567V109.97a2.575 2.575 0 0 1 2.566-2.566h58.82a2.575 2.575 0 0 1 2.567 2.566v78.773a2.574 2.574 0 0 1-2.567 2.567" fill="#339457" mask="url(#b)"/><path d="M416.867 161.294a1.965 1.965 0 0 1-1.958 1.958H388.39a1.965 1.965 0 0 1-1.959-1.958v-29.817c0-1.076.881-1.957 1.959-1.957h26.518c1.077 0 1.958.881 1.958 1.957v29.817zm.821-40.777h-36.375a3.013 3.013 0 0 0-3.003 3.004v45.73a3.011 3.011 0 0 0 3.003 3.003h36.375c4.015 0 7.302-3.287 7.302-7.302v-37.134c0-4.015-3.285-7.301-7.302-7.301z" fill="#339457" mask="url(#b)"/><path d="M376.706 191.31h-29.409a2.573 2.573 0 0 1-2.566-2.567V109.97a2.574 2.574 0 0 1 2.566-2.566h29.41v83.906z" fill="#90BA5F" mask="url(#b)"/><path fill="#EDF4F3" mask="url(#b)" d="M87.046 127.17h22.472V71.115H87.046z"/><path fill="#708DA0" mask="url(#b)" d="M117.713 127.17h22.472V52.867h-22.472z"/><path fill="#4A6271" mask="url(#b)" d="M148.379 127.17h22.472V71.115h-22.472z"/><path fill="#EDF4F3" mask="url(#b)" d="M179.046 127.17h22.472V60.688h-22.472z"/><path fill="#708DA0" mask="url(#b)" d="M209.711 127.17h22.473V71.115H209.71z"/><path fill="#EDF4F3" mask="url(#b)" d="M93.819 136.406h8.925v-3.187H93.82zM124.486 136.406h8.926v-3.187h-8.926zM155.152 136.406h8.925v-3.187h-8.925zM185.82 136.406h8.925v-3.187h-8.926zM216.485 136.406h8.925v-3.187h-8.925z"/></g></svg>