<svg width="100" height="100" viewBox="0 0 100 100" xmlns="http://www.w3.org/2000/svg"><g fill="#1C5291" fill-rule="evenodd"><path d="M0 0h16v16H0zM0 21h16v16H0zM21 0h16v16H21zM21 21h16v16H21zM42 0h16v16H42zM42 21h16v16H42zM63 0h16v16H63zM63 21h16v16H63zM84 0h16v16H84zM84 21h16v16H84zM0 42h16v16H0zM21 42h16v16H21zM42 42h16v16H42zM63 42h16v16H63zM84 42h16v16H84zM0 63h16v16H0zM21 63h16v16H21zM42 63h16v16H42zM63 63h16v16H63zM84 63h16v16H84zM0 84h16v16H0zM21 84h16v16H21zM42 84h16v16H42zM63 84h16v16H63zM84 84h16v16H84z"/></g></svg>