<svg width="100" height="100" viewBox="0 0 100 100" xmlns="http://www.w3.org/2000/svg"><g fill="none" fill-rule="evenodd"><path fill="#1C5291" d="M0 0h16v16H0z"/><path fill="#FCB813" opacity=".5" d="M0 21h16v16H0z"/><path fill="#9ECE7B" opacity=".5" d="M21 0h16v16H21z"/><path fill="#00AF97" opacity=".455" d="M21 21h16v16H21z"/><path fill="#E1E676" opacity=".5" d="M42 0h16v16H42z"/><path fill="#9ECE7B" opacity=".5" d="M42 21h16v16H42z"/><path fill="#1592D4" opacity=".5" d="M63 0h16v16H63z"/><path fill="#00AF97" opacity=".5" d="M63 21h16v16H63z"/><path fill="#82DBF0" opacity=".5" d="M84 0h16v16H84z"/><path fill="#F28729" opacity=".5" d="M84 21h16v16H84z"/><path fill="#00AF97" opacity=".5" d="M0 42h16v16H0z"/><path fill="#1592D4" opacity=".455" d="M21 42h16v16H21z"/><path fill="#82DBF0" opacity=".5" d="M42 42h16v16H42z"/><path fill="#00AF97" opacity=".5" d="M63 42h16v16H63z"/><path fill="#1592D4" opacity=".5" d="M84 42h16v16H84z"/><path fill="#82DBF0" opacity=".5" d="M0 63h16v16H0z"/><path fill="#00AF97" opacity=".455" d="M21 63h16v16H21z"/><path fill="#00AF97" opacity=".5" d="M42 63h16v16H42z"/><path fill="#F28729" opacity=".5" d="M63 63h16v16H63z"/><path fill="#00AF97" opacity=".5" d="M84 63h16v16H84z"/><path fill="#FCB813" opacity=".5" d="M0 84h16v16H0z"/><path fill="#1592D4" opacity=".455" d="M21 84h16v16H21z"/><path fill="#82DBF0" opacity=".5" d="M42 84h16v16H42z"/><path fill="#00AF97" opacity=".5" d="M63 84h16v16H63z"/><path fill="#FCB813" opacity=".5" d="M84 84h16v16H84z"/></g></svg>