<svg width="201" height="122" viewBox="0 0 201 122" xmlns="http://www.w3.org/2000/svg" xmlns:xlink="http://www.w3.org/1999/xlink"><defs><path id="a" d="M168.577.571H.024v119.132h168.553z"/><path id="c" d="M0 121.429h200.332V1H0z"/></defs><g transform="translate(-.174 -.121)" fill="none" fill-rule="evenodd"><g transform="translate(16 .429)"><mask id="b" fill="#fff"><use xlink:href="#a"/></mask><path d="M161.881 119.703H6.72a6.696 6.696 0 0 1-6.696-6.696V7.267A6.696 6.696 0 0 1 6.72.57H161.88a6.696 6.696 0 0 1 6.696 6.696v105.741a6.696 6.696 0 0 1-6.696 6.696" fill="#CBD8DE" mask="url(#b)"/></g><mask id="d" fill="#fff"><use xlink:href="#c"/></mask><path fill="#EDF4F3" mask="url(#d)" d="M23.391 106.049h153.85V10.13H23.391z"/><path stroke="#CBD8DE" stroke-width=".75" mask="url(#d)" d="M23.391 106.049h153.85V10.13H23.391z"/><path fill="#EDF4F3" mask="url(#d)" d="M100.316 106.049h76.925V10.13h-76.925z"/><path stroke="#CBD8DE" stroke-width=".75" mask="url(#d)" d="M100.316 106.049h76.925V10.13h-76.925z"/><path d="M189.965 121.429H10.366C7.071 121.429 0 118.733 0 115.438h200.332c0 3.295-7.072 5.991-10.367 5.991" fill="#99B1BF" mask="url(#d)"/><path d="M87.996 116.499h24.34c.585 0 1.061-.477 1.061-1.061H86.934c0 .584.478 1.06 1.062 1.06" fill="#FFF" mask="url(#d)"/><path d="M101.072 5.235a.772.772 0 1 1-1.545 0 .772.772 0 0 1 1.545 0" fill="#252E33" mask="url(#d)"/><path d="M68.538 41.904c5.996 2.826 9.707 9.328 8.693 16.226-1.241 8.443-9.091 14.282-17.535 13.04" stroke="#708DA0" stroke-width="2" stroke-linecap="round" mask="url(#d)"/><path d="M55.343 69.86c-5.993-2.828-9.702-9.329-8.688-16.224 1.24-8.444 9.09-14.283 17.535-13.042" stroke="#82CDE6" stroke-width="2" stroke-linecap="round" mask="url(#d)"/><path stroke="#82CDE6" stroke-width="2" stroke-linecap="round" stroke-linejoin="round" mask="url(#d)" d="M59.235 36.182l2.986 2.173 2.987 2.173-2.987 2.173-2.986 2.173"/><path stroke="#708DA0" stroke-width="2" stroke-linecap="round" stroke-linejoin="round" mask="url(#d)" d="M65.208 75.653l-2.986-2.173-2.987-2.173 2.987-2.173 2.986-2.173"/><path fill="#82CDE6" mask="url(#d)" d="M144.778 68.268h12v-12h-12z"/><path fill="#1C5191" mask="url(#d)" d="M121.5 64.981h12v-12h-12z"/><path fill="#708DA0" mask="url(#d)" d="M138.778 50.315h12v-12h-12z"/><path fill="#252E33" mask="url(#d)" d="M151.11 64.56l2.125 2.643 2.125 2.644-2.492.314-2.225 1.166.233-3.384z"/><path fill="#252E33" mask="url(#d)" d="M154.336 72.801l-.943.296-1.726-5.502.942-.296z"/></g></svg>