<svg width="405" height="192" viewBox="0 0 405 192" xmlns="http://www.w3.org/2000/svg" xmlns:xlink="http://www.w3.org/1999/xlink"><defs><path id="a" d="M57.284 64.895V.615H.146v64.28h57.138z"/><path id="c" d="M267.999.824H.712V189.74H268V.824z"/><path id="e" d="M0 192.282h404.04V.824H0z"/></defs><g fill="none" fill-rule="evenodd"><path fill="#E2E8E8" d="M373.104 186.941h5.017V84.522h-5.017z"/><g transform="translate(.142 -.6)"><path d="M392.327 187.542h-33.713a4.74 4.74 0 0 0-4.74 4.74h43.193a4.74 4.74 0 0 0-4.74-4.74z" fill="#E2E8E8"/><g transform="translate(346.755 66.27)"><mask id="b" fill="#fff"><use xlink:href="#a"/></mask><path d="M34.035 64.895h-10.64c-12.84 0-23.25-10.41-23.25-23.25L1.664.615h54.105l1.517 41.03c0 12.84-10.41 23.25-23.25 23.25" fill="#E2E8E8" mask="url(#b)"/></g><g transform="translate(24.697)"><mask id="d" fill="#fff"><use xlink:href="#c"/></mask><path d="M257.38 189.74H11.33c-5.864 0-10.618-4.754-10.618-10.618V11.442C.712 5.577 5.466.823 11.33.823h246.05C263.246.824 268 5.578 268 11.44v167.681c0 5.864-4.754 10.618-10.618 10.618" fill="#CBD8DE" mask="url(#d)"/></g><mask id="f" fill="#fff"><use xlink:href="#e"/></mask><path fill="#82CDE6" mask="url(#f)" d="M37.091 167.407h243.97V15.303H37.092z"/><path stroke="#CBD8DE" stroke-width=".75" mask="url(#f)" d="M37.091 167.407h243.97V15.303H37.092z"/><path d="M301.24 191.797H16.44c-5.227 0-16.44-4.277-16.44-9.502H317.68c0 5.225-11.214 9.502-16.44 9.502" fill="#99B1BF" mask="url(#f)"/><path d="M139.54 183.978h38.6c.925 0 1.682-.757 1.682-1.683h-41.965c0 .926.757 1.683 1.683 1.683" fill="#FFF" mask="url(#f)"/><path d="M160.276 7.541a1.225 1.225 0 1 1-2.45 0 1.225 1.225 0 0 1 2.45 0" fill="#252E33" mask="url(#f)"/><path fill="#EDF4F3" mask="url(#f)" d="M54.696 118.453h13.128V77.008H54.696zM72.58 118.453h13.128V63.515H72.58zM90.466 118.453h13.128V77.008H90.466zM108.35 118.453h13.128V69.297H108.35zM126.236 118.453h13.128V77.008h-13.128zM144.122 118.453h13.128V71.898h-13.128zM162.006 118.453h13.128V63.515h-13.128zM179.891 118.453h13.129V77.008H179.89zM197.775 118.453h13.129V69.297h-13.129zM215.661 118.453h13.128V79.596h-13.128zM233.545 118.453h13.128V69.297h-13.128zM251.431 118.453h13.128V77.008h-13.128zM57.905 126.483h5.315v-2.403h-5.315zM75.907 126.483h5.315v-2.403h-5.315zM93.908 126.483h5.315v-2.403h-5.315zM111.91 126.46h5.213v-2.357h-5.213zM129.81 126.46h5.213v-2.357h-5.213zM147.708 126.483h5.315v-2.403h-5.315zM165.71 126.483h5.315v-2.403h-5.315zM183.71 126.483h5.316v-2.403h-5.315zM201.713 126.46h5.213v-2.357h-5.213zM219.613 126.46h5.212v-2.357h-5.212zM237.513 126.46h5.212v-2.357h-5.212zM255.412 126.46h5.213v-2.357h-5.213z"/><path fill="#1C5191" mask="url(#f)" d="M54.696 79.08h13.128V72.76H54.696zM72.58 72.051h13.128v-8.38H72.58zM90.466 79.08h13.128V72.76H90.466zM108.35 76.798h13.128V69.3H108.35zM126.236 79.08h13.128V72.76h-13.128zM144.122 74.838h13.128v-7.102h-13.128zM162.006 72.051h13.128v-8.38h-13.128zM179.891 79.08h13.129V72.76H179.89zM197.775 76.798h13.129V69.3h-13.129zM215.661 81.362h13.128v-5.93h-13.128zM233.545 76.798h13.128V69.3h-13.128zM251.431 79.08h13.128V72.76h-13.128z"/><path d="M349.511 96.811l-.41 11.133c0 11.851 9.606 21.46 21.46 21.46h9.82c11.85 0 21.461-9.609 21.461-21.46l-.413-11.133h-51.918z" fill="#742E4E" mask="url(#f)"/></g></g></svg>