<svg width="410" height="194" viewBox="0 0 410 194" xmlns="http://www.w3.org/2000/svg" xmlns:xlink="http://www.w3.org/1999/xlink"><defs><path id="a" d="M0 279.523h416.321V.165H0z"/></defs><g fill="none" fill-rule="evenodd"><g transform="translate(-7 -26.518)"><path d="M290.942 217.657H43.268c-5.903 0-10.688-4.786-10.688-10.688V38.182c0-5.903 4.785-10.688 10.688-10.688h247.674c5.902 0 10.688 4.785 10.688 10.688v168.787c0 5.902-4.786 10.688-10.688 10.688z" fill="#CBD8DE"/><mask id="b" fill="#fff"><use xlink:href="#a"/></mask><path fill="#EDF4F3" mask="url(#b)" d="M44.34 195.176h245.58V42.068H44.34z"/><path stroke="#CBD8DE" stroke-width=".75" mask="url(#b)" d="M44.34 195.176h245.58V42.068H44.34z"/><path d="M310.23 219.727H23.551c-5.261 0-16.548-4.304-16.548-9.564h319.775c0 5.26-11.288 9.564-16.548 9.564" fill="#99B1BF" mask="url(#b)"/><path d="M147.464 211.857h38.854c.932 0 1.694-.762 1.694-1.694H145.77c0 .932.761 1.694 1.694 1.694" fill="#FFF" mask="url(#b)"/><path d="M168.337 34.256a1.231 1.231 0 1 1-2.463.002 1.231 1.231 0 0 1 2.463-.002" fill="#252E33" mask="url(#b)"/></g><path d="M263.865 162.981h12.485v-12.486h-12.485v12.486zm0-12.934h12.485V137.56h-12.485v12.487zm0-12.934h12.485v-12.487h-12.485v12.487zm0-12.936h12.485V111.69h-12.485v12.487zm0-12.934h12.485V98.758h-12.485v12.485zm0-12.933h12.485V85.824h-12.485V98.31zm0-25.02l.526-.4h11.959v12.486h-12.485V73.29zm0-2.311l.112-.01-.112.086v-.076zm0-11.024h12.485v12.487h-11.375l2.502-1.912a.887.887 0 0 0-.128-1.493l-3.484-1.82v-7.262zm0-.449h12.485V47.02h-12.485v12.487zm0-12.934h12.485V34.085h-12.485v12.487zm0-12.934h12.485V21.15h-12.485v12.487zm-12.932 0h12.485V21.15h-12.485v12.487zm0 12.936h12.485V34.087h-12.485v12.487zm0 12.934h12.485V47.02h-12.485v12.487zm12.485 7.474l-9.344-4.883a.895.895 0 0 0-1.199.376.89.89 0 0 0 .377 1.199l10.166 5.31v.251L250.93 70.31V59.955h12.487v7.027zm0 4.416l-1.368 1.044h-11.12v-.355l12.488-1.069v.38zm0 13.978H250.93V72.89h10.535l-6.966 5.325a.887.887 0 1 0 1.078 1.41l7.84-5.991v11.742zM250.933 98.31h12.485V85.824h-12.485V98.31zm0 12.933h12.485V98.758h-12.485v12.485zm0 12.936h12.485v-12.487h-12.485v12.487zm0 12.934h12.485v-12.487h-12.485v12.487zm0 12.934h12.485V137.56h-12.485v12.487zm0 12.934h12.485v-12.486h-12.485v12.486zM237.997 33.638h12.485V21.15h-12.485v12.487zm0 12.936h12.485V34.087h-12.485v12.487zm0 12.934h12.485V47.02h-12.485v12.487zm12.485 10.84l-12.485 1.073V59.955h12.485V70.35zm0 2.094h-3.683l3.683-.316v.316zm0 12.934h-12.485v-12.18l3.583-.306h8.902v12.486zM237.997 98.31h12.485V85.824h-12.485V98.31zm0 12.933h12.485V98.758h-12.485v12.485zm0 12.936h12.485v-12.487h-12.485v12.487zm0 12.934h12.485v-12.487h-12.485v12.487zm0 12.934h12.485V137.56h-12.485v12.487zm0 12.934h12.485v-12.486h-12.485v12.486zM225.062 33.638h12.485V21.15h-12.485v12.487zm0 12.936h12.485V34.087h-12.485v12.487zm0 12.934h12.485V47.02h-12.485v12.487zm12.485 11.952l-11.42.982h-1.065V59.955h12.485V71.46zm0 13.916h-12.485V74.36l.357-.085 12.128-1.04v12.141zM225.062 98.31h12.485V85.824h-12.485V98.31zm0 12.933h12.485V98.758h-12.485v12.485zm0 12.936h12.485v-12.487h-12.485v12.487zm0 12.934h12.485v-12.487h-12.485v12.487zm0 12.934h12.485V137.56h-12.485v12.487zm0 12.934h12.485v-12.486h-12.485v12.486zM212.128 33.638h12.485V21.15h-12.485v12.487zm0 12.936h12.485V34.087h-12.485v12.487zm0 12.934h12.485V47.02h-12.485v12.487zm0 12.934h12.485V59.955h-12.485v12.487zm12.485 12.934h-12.485v-7.942l12.485-2.968v10.91zM212.128 98.31h12.485V85.824h-12.485V98.31zm0 12.933h12.485V98.758h-12.485v12.485zm0 12.936h12.485v-12.487h-12.485v12.487zm0 12.934h12.485v-12.487h-12.485v12.487zm0 12.934h12.485V137.56h-12.485v12.487zm0 12.934h12.485v-12.486h-12.485v12.486zm0-90.091h11.485l-11.485 2.727V72.89zm-12.934-39.252h12.485V21.15h-12.485v12.487zm0 12.936h12.485V34.087h-12.485v12.487zm0 12.934h12.485V47.02h-12.485v12.487zm0 12.934h12.485V59.955h-12.485v12.487zm12.485 3.282l-12.485 2.965v-5.8h12.485v2.835zm0 9.652h-12.485v-4.869l12.485-2.967v7.836zM199.194 98.31h12.485V85.824h-12.485V98.31zm0 12.933h12.485V98.758h-12.485v12.485zm0 12.936h12.485v-12.487h-12.485v12.487zm0 12.934h12.485v-12.487h-12.485v12.487zm0 12.934h12.485V137.56h-12.485v12.487zm0 12.934h12.485v-12.486h-12.485v12.486zM186.26 33.638h12.485V21.15H186.26v12.487zm0 12.936h12.485V34.087H186.26v12.487zm0 12.934h12.485V47.02H186.26v12.487zm0 12.934h12.485V59.955H186.26v12.487zm12.485 6.354L186.26 81.76V72.89h12.485v5.906zm0 6.58H186.26v-1.795l12.485-2.967v4.762zM186.26 98.31h12.485V85.824H186.26V98.31zm0 12.933h12.485V98.758H186.26v12.485zm0 12.936h12.485v-12.487H186.26v12.487zm0 12.934h12.485v-12.487H186.26v12.487zm0 12.934h12.485V137.56H186.26v12.487zm0 12.934h12.485v-12.486H186.26v12.486zM173.326 33.638h12.485V21.15h-12.485v12.487zm0 12.936h12.485V34.087h-12.485v12.487zm0 12.934h12.485V47.02h-12.485v12.487zm0 12.934h12.485V59.955h-12.485v12.487zm12.485 9.425l-12.485 2.966V72.89h12.485v8.977zm0 3.51h-7.105l7.105-1.69v1.69zm0 12.933h-12.485V86.655l3.496-.831h8.989V98.31zm-12.485 12.933h12.485V98.758h-12.485v12.485zm0 12.936h12.485v-12.487h-12.485v12.487zm0 12.934h12.485v-12.487h-12.485v12.487zm0 12.934h12.485V137.56h-12.485v12.487zm0 12.934h12.485v-12.486h-12.485v12.486zM160.392 33.638h12.484V21.15h-12.484v12.487zm0 12.936h12.484V34.087h-12.484v12.487zm0 12.934h12.484V47.02h-12.484v12.487zm0 12.934h12.484V59.955h-12.484v12.487zm12.484 12.497l-1.837.437h-10.647V72.89h12.484v12.05zm0 13.371h-12.484V89.73l12.484-2.968v11.55zm-12.484 12.933h12.484V98.758h-12.484v12.485zm0 12.936h12.484v-12.487h-12.484v12.487zm0 12.934h12.484v-12.487h-12.484v12.487zm0 12.934h12.484V137.56h-12.484v12.487zm0 12.934h12.484v-12.486h-12.484v12.486zm0-77.157h8.763l-8.763 2.08v-2.08zm-12.935-52.186h12.485V21.15h-12.485v12.487zm0 12.936h12.485V34.087h-12.485v12.487zm0 12.934h12.485V47.02h-12.485v12.487zm0 12.934h12.485V59.955h-12.485v12.487zm0 12.934h12.485V72.89h-12.485v12.486zm12.485 2.635l-12.486 2.966v-5.153h12.486v2.187zm0 10.3h-12.486v-5.509l12.486-2.967v8.475zm-12.485 12.932h12.485V98.758h-12.485v12.485zm0 12.936h12.485v-12.487h-12.485v12.487zm0 12.934h12.485v-12.487h-12.485v12.487zm0 12.934h12.485V137.56h-12.485v12.487zm0 12.934h12.485v-12.486h-12.485v12.486zM134.521 33.638h12.485V21.15h-12.485v12.487zm0 12.936h12.485V34.087h-12.485v12.487zm0 12.934h12.485V47.02h-12.485v12.487zm0 12.934h12.485V59.955h-12.485v12.487zm0 12.934h12.485V72.89h-12.485v12.486zm12.485 5.636l-12.483-1.848v-3.34h12.483v5.188zm0 7.298h-12.483v-7.353l12.483 1.85v5.503zm-12.485 12.933h12.485V98.758h-12.485v12.485zm0 12.936h12.485v-12.487h-12.485v12.487zm0 12.934h12.485v-12.487h-12.485v12.487zm0 12.934h12.485V137.56h-12.485v12.487zm0 12.934h12.485v-12.486h-12.485v12.486zM121.59 33.638h12.485V21.15h-12.485v12.487zm0 12.936h12.485V34.087h-12.485v12.487zm0 12.934h12.485V47.02h-12.485v12.487zm0 12.934h12.485V59.955h-12.485v12.487zm0 12.934h12.485V72.89h-12.485v12.486zm12.485 3.72l-12.487-1.848v-1.424h12.487v3.272zm0 9.214h-12.487v-9.269l12.487 1.85v7.42zm-12.485 12.933h12.485V98.758h-12.485v12.485zm0 12.936h12.485v-12.487h-12.485v12.487zm0 12.934h12.485v-12.487h-12.485v12.487zm0 12.934h12.485V137.56h-12.485v12.487zm0 12.934h12.485v-12.486h-12.485v12.486zM108.655 33.638h12.485V21.15h-12.485v12.487zm0 12.936h12.485V34.087h-12.485v12.487zm0 12.934h12.485V47.02h-12.485v12.487zm0 12.934h12.485V59.955h-12.485v12.487zm12.485 12.934h-12.18l-.307-.046V72.89h12.487v12.486zm0 1.804l-9.16-1.356h9.16v1.356zm0 11.13h-12.487V87.125l12.487 1.849v9.336zm-12.485 12.933h12.485V98.758h-12.485v12.485zm0 12.936h12.485v-12.487h-12.485v12.487zm0 12.934h12.485v-12.487h-12.485v12.487zm0 12.934h12.485V137.56h-12.485v12.487zm0 12.934h12.485v-12.486h-12.485v12.486zM95.719 33.638h12.485V21.15H95.719v12.487zm0 12.936h12.485V34.087H95.719v12.487zm0 12.934h12.485V47.02H95.719v12.487zm0 12.934h12.485V59.955H95.719v12.487zm12.485 12.822l-12.485-1.85V72.89h12.485v12.374zm0 13.046H95.719V85.824h4.15l8.335 1.234V98.31zm-12.485 12.933h12.485V98.758H95.719v12.485zm0 12.936h12.485v-12.487H95.719v12.487zm0 12.934h12.485v-12.487H95.719v12.487zm0 12.934h12.485V137.56H95.719v12.487zm0 12.934h12.485v-12.486H95.719v12.486zm0-77.772l1.13.167h-1.13v-.167zM82.785 33.638H95.27V21.15H82.785v12.487zm0 12.936H95.27V34.087H82.785v12.487zm0 12.934H95.27V47.02H82.785v12.487zm0 12.934H95.27V59.955H82.785v12.487zM95.27 83.348l-12.485-1.85V72.89H95.27v10.458zm0 2.028H82.785v-2.083l12.485 1.849v.234zM82.785 98.31H95.27V85.824H82.785V98.31zm0 12.933H95.27V98.758H82.785v12.485zm0 12.936H95.27v-12.487H82.785v12.487zm0 12.934H95.27v-12.487H82.785v12.487zm0 12.934H95.27V137.56H82.785v12.487zm0 12.934H95.27v-12.486H82.785v12.486zM69.85 33.638h12.485V21.15H69.85v12.487zm0 12.936h12.485V34.087H69.85v12.487zm0 12.934h12.485V47.02H69.85v12.487zm0 12.934h12.485V59.955H69.85v12.487zm12.485 8.99l-12.485-1.85V72.89h12.485v8.542zm0 3.944H69.85v-3.999l12.485 1.849v2.15zM69.85 98.31h12.485V85.824H69.85V98.31zm0 12.933h12.485V98.758H69.85v12.485zm0 12.936h12.485v-12.487H69.85v12.487zm0 12.934h12.485v-12.487H69.85v12.487zm0 12.934h12.485V137.56H69.85v12.487zm0 12.934h12.485v-12.486H69.85v12.486zM56.916 33.638h12.485V21.15H56.916v12.487zm0 12.936h12.485V34.087H56.916v12.487zm0 12.934h12.485V47.02H56.916v12.487zm0 12.934h12.485V59.955H56.916v12.487zm12.485 7.074l-.026-.005-12.459 2.02V72.89h12.485v6.626zm0 5.86H56.916v-2.049l12.471-2.019.014.002v4.066zM56.916 98.31h12.485V85.824H56.916V98.31zm0 12.933h12.485V98.758H56.916v12.485zm0 12.936h12.485v-12.487H56.916v12.487zm0 12.934h12.485v-12.487H56.916v12.487zm0 12.934h12.485V137.56H56.916v12.487zm0 12.934h12.485v-12.486H56.916v12.486zM43.982 33.638h12.485V21.15H43.982v12.487zm0 12.936h12.485V34.087H43.982v12.487zm0 12.934h12.485V47.02H43.982v12.487zm0 12.934h12.485V59.955H43.982v12.487zm12.485 9.16l-12.485 2.023V72.89h12.485v8.713zm0 3.774H44.27l12.197-1.974v1.974zM43.982 98.31h12.485V85.824H43.982V98.31zm0 12.933h12.485V98.758H43.982v12.485zm0 12.936h12.485v-12.487H43.982v12.487zm0 12.934h12.485v-12.487H43.982v12.487zm0 12.934h12.485V137.56H43.982v12.487zm0 12.934h12.485v-12.486H43.982v12.486zM276.8 167.41v-3.981h5.977v-.448H276.8v-12.486h5.977v-.448H276.8V137.56h5.977v-.447H276.8v-12.487h5.977v-.447H276.8V111.69h5.977v-.447H276.8V98.758h5.977v-.448H276.8V85.824h5.977v-.448H276.8V72.89h5.977v-.448H276.8V59.955h5.977v-.447H276.8V47.019h5.977v-.445H276.8V34.085h5.977v-.447H276.8V21.15h5.977v-.447H276.8v-4.356h-.45v4.356h-12.484v-4.356h-.447v4.356H250.93v-4.356h-.45v4.356h-12.484v-4.356h-.45v4.356h-12.485v-4.356h-.449v4.356h-12.485v-4.356h-.449v4.356h-12.485v-4.356h-.45v4.356H186.26v-4.356h-.45v4.356h-12.484v-4.356h-.45v4.356h-12.484v-4.356h-.45v4.356h-12.486v-4.356h-.45v4.356h-12.483v-4.356h-.45v4.356h-12.486v-4.356h-.447v4.356h-12.487v-4.356h-.45v4.356H95.72v-4.356h-.45v4.356H82.786v-4.356h-.45v4.356H69.85v-4.356h-.449v4.356H56.916v-4.356h-.449v4.356H43.982v-4.356h-.45v4.356h-5.168v.447h5.169v12.487h-5.17v.447h5.17v12.489h-5.17v.445h5.17v12.489h-5.17v.447h5.17v12.487h-5.17v.448h5.17v10.808l-5.17.837v1.798l3.144-.51h2.026V98.31h-5.17v.448h5.17v12.485h-5.17v.447h5.17v12.489h-5.17v.447h5.17v12.487h-5.17v.447h5.17v12.487h-5.17v.448h5.17v12.486h-5.17v.448h5.17v3.981h.45v-3.981h12.484v3.981h.45v-3.981H69.4v3.981h.45v-3.981h12.484v3.981h.45v-3.981H95.27v3.981h.449v-3.981h12.485v3.981h.449v-3.981h12.487v3.981h.447v-3.981h12.487v3.981h.45v-3.981h12.482v3.981h.45v-3.981h12.486v3.981h.45v-3.981h12.484v3.981h.45v-3.981h12.485v3.981h.449v-3.981h12.485v3.981h.45v-3.981h12.484v3.981h.45v-3.981h12.484v3.981h.45v-3.981h12.484v3.981h.45v-3.981h12.485v3.981h.449v-3.981h12.487v3.981h.447v-3.981h12.485v3.981h.45z" fill="#D3D3D3"/><path d="M74.397 80.49a4.888 4.888 0 1 1-9.776 0 4.888 4.888 0 0 1 9.776 0M152.056 92.095a4.888 4.888 0 1 1-9.777 0 4.888 4.888 0 0 1 9.777 0M229.88 73.481a4.888 4.888 0 1 1-9.777 0 4.888 4.888 0 0 1 9.776 0" fill="#EDB31E"/><g><path d="M402.536 191.299h-56.05a2.802 2.802 0 0 1-2.793-2.793l-3.99-105.443a2.801 2.801 0 0 1 2.793-2.795h64.03a2.802 2.802 0 0 1 2.795 2.795l-3.991 105.443a2.802 2.802 0 0 1-2.794 2.793" fill="#E2E8E8"/><path d="M343.427 102.756l3.068 83.565c0 1.126.95 2.21 1.947 2.21h52.14c1.043 0 1.946-1.159 1.946-2.21l3.07-83.565h-62.171z" fill="#57261E"/><path d="M389.335 99.917a1.53 1.53 0 0 0-1.781-1.227l-11.858 2.19c-.831.152-1.38.95-1.227 1.78l.525 2.85-12.992-6.8a1.832 1.832 0 0 0-2.47.772l-7.84 14.984c-.469.895-.124 1.999.77 2.468l14.984 7.841c.895.47 2 .123 2.47-.772l6.277-11.997.463 2.515a1.53 1.53 0 0 0 1.783 1.225l11.86-2.188a1.532 1.532 0 0 0 1.225-1.783l-2.189-11.858z" fill="#FFF"/><path d="M369.732 102.756l-7.735-4.046a1.83 1.83 0 0 0-2.469.772l-1.71 3.274h11.914zM389.859 102.756l-.527-2.839a1.529 1.529 0 0 0-1.781-1.227l-11.962 2.216c-.678.176-1.262.762-1.143 1.552l.04.298h15.373z" fill="#FFF"/><path d="M347.099 80.268l-1.53-15.965a3.19 3.19 0 0 0-4.101-2.75l-16.16 4.886" stroke="#99B1BF" stroke-width="2"/><path d="M357.472 188.627L347.1 80.27" fill="#EDF4F3"/><path d="M357.472 188.627L347.1 80.27" stroke="#99B1BF" stroke-width="2"/></g></g></svg>